<svg width="24" height="24" viewBox="0 0 24 24" fill="none" xmlns="http://www.w3.org/2000/svg">
<g clip-path="url(#clip0)">
<path d="M8.53125 7.45918C8.53125 13.4076 8.54531 14.9076 8.59219 14.8795C8.62031 14.8561 9.37969 14.1904 10.2797 13.3982L11.9109 11.9545H17.9531H24V5.97793V0.00137043H16.2656H8.53125V7.45918ZM16.8891 3.68575L17.4797 4.44043L18.2438 4.72168C18.6656 4.87637 19.0875 5.03106 19.1859 5.06856C19.2891 5.10606 19.3547 5.15293 19.3406 5.19043C19.3266 5.21856 19.0828 5.59825 18.7922 6.03418L18.2672 6.82168L18.225 7.82481C18.2016 8.37793 18.1781 8.83731 18.1734 8.842C18.1688 8.84668 17.7328 8.72481 17.2031 8.57481L16.2469 8.29825L15.2813 8.57012C14.3484 8.83731 14.3203 8.842 14.2922 8.74825C14.2781 8.692 14.25 8.23731 14.2359 7.73575L14.2031 6.82637L13.6641 6.01543C13.3688 5.57012 13.125 5.18575 13.125 5.167C13.125 5.14356 13.5422 4.97481 14.0578 4.78731L14.9906 4.44512L15.6094 3.65293C15.9516 3.21231 16.2469 2.87481 16.2656 2.89356C16.2844 2.91231 16.5656 3.27325 16.8891 3.68575Z" fill="#002178"/>
<path d="M16.0078 5.31892C15.8531 5.52985 15.7734 5.59079 15.539 5.67517C15.3843 5.73142 15.239 5.79235 15.2156 5.81579C15.1968 5.83454 15.2625 5.97517 15.3703 6.12985C15.5531 6.39704 15.5625 6.43454 15.5625 6.7486C15.5625 7.04392 15.5718 7.08142 15.6468 7.05798C16.2515 6.87985 16.2234 6.88454 16.5562 6.97829C16.9218 7.08142 16.9218 7.08142 16.9218 6.66423C16.9218 6.42985 16.9453 6.35954 17.1093 6.11579C17.2125 5.9611 17.2781 5.82517 17.2593 5.80642C17.2406 5.79235 17.1 5.73142 16.9453 5.67517C16.7109 5.59079 16.6265 5.52985 16.4578 5.31892C16.35 5.17829 16.2468 5.0611 16.2281 5.0611C16.2093 5.06579 16.1109 5.17829 16.0078 5.31892Z" fill="#002178"/>
<path d="M2.24926 8.83578C1.42895 9.03734 0.68364 9.63265 0.30864 10.378C-0.0101102 11.0155 -0.0101102 10.9686 0.0133273 14.1655C0.0320773 17.3764 0.0273898 17.3436 0.40239 18.4639C1.20395 20.8686 3.15864 22.8186 5.56333 23.6061C6.67426 23.967 6.6602 23.967 9.61333 23.9858C12.5758 24.0092 12.6274 24.0045 13.2133 23.6952C13.7899 23.3905 14.2258 22.9592 14.5118 22.392C14.7274 21.9702 14.8071 21.6373 14.8446 21.0373L14.8727 20.5358L11.2915 20.5217L7.7102 20.5077L7.25551 20.3811C5.46489 19.8889 4.1102 18.5342 3.61801 16.7389L3.49145 16.2889L3.47739 12.5248L3.46333 8.76546L2.9852 8.77015C2.7227 8.77015 2.38989 8.80296 2.24926 8.83578Z" fill="#002178"/>
<path d="M5.01562 11.8594V14.9531H5.97656H6.9375V11.8594V8.76562H5.97656H5.01562V11.8594Z" fill="#002178"/>
<path d="M9.04688 18.0234V18.9844H11.9531H14.8594V18.0234V17.0625H11.9531H9.04688V18.0234Z" fill="#002178"/>
<rect x="12" y="2.3996" width="9.6" height="8.4" fill="#002178"/>
<path d="M17.295 2.43664H15.525C15.7217 2.5533 15.8717 2.68997 15.975 2.84664C16.0817 3.0033 16.1533 3.17664 16.19 3.36664H17.295V4.20664H16.185C16.1083 4.53997 15.9467 4.8333 15.7 5.08664C15.4567 5.33664 15.1333 5.52497 14.73 5.65164C14.8167 5.6983 14.8967 5.75497 14.97 5.82164C15.0433 5.88497 15.11 5.9633 15.17 6.05664L17.115 8.80164H16.065C15.8617 8.80164 15.7133 8.72164 15.62 8.56164L13.935 6.13664C13.8783 6.0533 13.8167 5.9933 13.75 5.95664C13.6833 5.91997 13.5833 5.90164 13.45 5.90164H12.555V5.10164H13.525C13.945 5.10164 14.2817 5.01997 14.535 4.85664C14.7917 4.68997 14.9633 4.4733 15.05 4.20664H12.55V3.36664H15.08C15.0033 3.0833 14.8383 2.8633 14.585 2.70664C14.335 2.54997 13.9917 2.47164 13.555 2.47164H12.555V1.60164H17.295V2.43664Z" fill="white"/>
</g>
<defs>
<clipPath id="clip0">
<rect width="24" height="24" fill="white"/>
</clipPath>
</defs>
</svg>
