<svg width="24" height="24" viewBox="0 0 24 24" fill="none" xmlns="http://www.w3.org/2000/svg">
<path d="M4.63594 1.56138C3.56719 1.927 2.85938 2.87388 2.85938 3.94263V4.31294H9.24844C12.9281 4.31294 15.825 4.33638 16.0922 4.35981C17.0297 4.45356 17.8688 4.84731 18.5344 5.51294C19.2094 6.18794 19.6031 7.027 19.6875 7.98325C19.7109 8.24575 19.7297 9.97075 19.7344 11.8176V15.1692L21.2625 16.6692C22.1063 17.4895 22.8516 18.202 22.9172 18.2442C23.0859 18.3614 23.5125 18.3567 23.6906 18.2395C23.7609 18.1926 23.8641 18.0895 23.9109 18.0192C23.9953 17.8879 24 17.6583 24 10.7114L23.9953 3.5395L23.8922 3.23013C23.6063 2.38638 22.9734 1.78169 22.1297 1.52856C21.9 1.46294 21.0609 1.45357 13.4109 1.45357L4.94531 1.45825L4.63594 1.56138Z" fill="#002178"/>
<path d="M1.77656 5.827C0.95625 6.10825 0.342187 6.727 0.09375 7.54263C0 7.83325 0 8.01606 0 14.9958C0 21.9239 0.0046875 22.1536 0.0890625 22.2848C0.135937 22.3551 0.239062 22.4583 0.309375 22.5051C0.4875 22.6223 0.914062 22.627 1.08281 22.5098C1.14844 22.4676 2.10469 21.5161 3.20625 20.4004L5.21719 18.3754H10.7109C16.0406 18.3754 16.2187 18.3708 16.5047 18.2817C17.3203 18.0333 17.9391 17.4192 18.2203 16.5989L18.3234 16.2895V12.0473V7.80513L18.2203 7.49575C17.9344 6.652 17.3016 6.04731 16.4578 5.79419C16.2281 5.72856 15.5016 5.71919 9.14531 5.71919L2.08594 5.72388L1.77656 5.827ZM9.45937 8.64419C9.66562 8.752 9.72656 8.84575 10.1109 9.70356L10.4812 10.5239L11.3672 10.6223C11.8594 10.6739 12.3047 10.7348 12.3609 10.7536C12.5156 10.8004 12.7406 11.0864 12.7734 11.2692C12.8344 11.5879 12.7406 11.7239 11.9953 12.4036C11.6062 12.7598 11.3016 13.0692 11.3109 13.0973C11.3203 13.1254 11.4094 13.552 11.5078 14.0395L11.6906 14.9301L11.5969 15.1176C11.4609 15.3942 11.2359 15.5301 10.9453 15.502C10.7578 15.4833 10.5656 15.3942 9.97031 15.052C9.5625 14.8176 9.20156 14.6254 9.16875 14.6254C9.13125 14.6254 8.77031 14.8176 8.3625 15.052C7.75781 15.3989 7.57031 15.4879 7.38281 15.502C7.09219 15.5301 6.86719 15.3942 6.73125 15.1176L6.6375 14.9301L6.82031 14.0395C6.91875 13.552 7.00781 13.1254 7.01719 13.0973C7.02656 13.0692 6.71719 12.7551 6.33281 12.4036C5.54531 11.6864 5.46562 11.5598 5.57344 11.2083C5.625 11.0301 5.89687 10.7395 6.01406 10.7301C6.04687 10.7301 6.46875 10.6833 6.96094 10.627L7.84687 10.5239L8.18437 9.77388C8.37187 9.36138 8.55469 8.96763 8.59687 8.89731C8.75156 8.62075 9.17344 8.49419 9.45937 8.64419Z" fill="#002178"/>
<path d="M8.97124 11.2831C8.76499 11.6956 8.63374 11.7987 8.26811 11.8409C7.77593 11.8972 7.7853 11.8737 8.09936 12.2066C8.25874 12.3706 8.39936 12.5628 8.41811 12.6378C8.43686 12.7128 8.42749 12.9144 8.39936 13.0878C8.36655 13.2659 8.34311 13.43 8.34311 13.4534C8.34311 13.4769 8.50249 13.4159 8.69467 13.3128C8.89155 13.2097 9.10249 13.1253 9.16342 13.1253C9.22436 13.1253 9.4353 13.2097 9.63217 13.3128C9.82436 13.4159 9.98373 13.4769 9.98373 13.4534C9.98373 13.43 9.96029 13.2659 9.92748 13.0878C9.89936 12.9144 9.88998 12.7128 9.90873 12.6378C9.92748 12.5628 10.0681 12.3706 10.2275 12.2066C10.5415 11.8737 10.5509 11.8972 10.0587 11.8409C9.6978 11.7987 9.56186 11.6909 9.3603 11.2972C9.26186 11.1097 9.17748 10.9456 9.16811 10.9363C9.16342 10.9269 9.07436 11.0863 8.97124 11.2831Z" fill="#002178"/>
<rect x="3.6001" y="8.39999" width="12" height="8.4" fill="#002178"/>
<path d="M11.295 8.43499H9.525C9.72167 8.55165 9.87167 8.68832 9.975 8.84499C10.0817 9.00165 10.1533 9.17499 10.19 9.36499H11.295V10.205H10.185C10.1083 10.5383 9.94667 10.8317 9.7 11.085C9.45667 11.335 9.13333 11.5233 8.73 11.65C8.81667 11.6967 8.89667 11.7533 8.97 11.82C9.04333 11.8833 9.11 11.9617 9.17 12.055L11.115 14.8H10.065C9.86167 14.8 9.71333 14.72 9.62 14.56L7.935 12.135C7.87833 12.0517 7.81667 11.9917 7.75 11.955C7.68333 11.9183 7.58333 11.9 7.45 11.9H6.555V11.1H7.525C7.945 11.1 8.28167 11.0183 8.535 10.855C8.79167 10.6883 8.96333 10.4717 9.05 10.205H6.55V9.36499H9.08C9.00333 9.08165 8.83833 8.86165 8.585 8.70499C8.335 8.54832 7.99167 8.46999 7.555 8.46999H6.555V7.59999H11.295V8.43499Z" fill="white"/>
</svg>
