<svg width="23" height="25" viewBox="0 0 23 25" fill="none" xmlns="http://www.w3.org/2000/svg">
<path d="M18.5561 16.1553C17.566 17.5151 15.9623 18.4007 14.1553 18.4007H11.6199C10.7441 18.4007 9.9982 17.8447 9.71576 17.0664C9.36714 16.9624 9.02527 16.8274 8.69166 16.6617C7.98517 16.3107 7.34367 15.8351 6.77897 15.246C3.116 16.0507 0.374512 19.3146 0.374512 23.2193V23.7296C0.374512 24.4312 0.943292 25 1.64489 25H21.3549C22.0565 25 22.6253 24.4312 22.6253 23.7296V23.2193C22.6252 20.2029 20.9891 17.5688 18.5561 16.1553Z" fill="white"/>
<path d="M5.42847 12.6275C5.97446 12.6275 6.44969 12.3249 6.6959 11.8783C6.70238 11.896 6.70896 11.9135 6.71559 11.9311C6.71755 11.9364 6.71951 11.9417 6.72147 11.9469C7.29906 13.4673 8.42291 14.7418 9.90485 15.2986C10.2633 14.7292 10.897 14.3504 11.6197 14.3504H14.1551C14.408 14.3504 14.6434 14.2791 14.8497 14.1637C15.1963 13.9699 15.5079 13.4783 15.6688 13.2177C15.9264 12.8008 16.1259 12.3591 16.3028 11.8775C16.4023 12.0581 16.539 12.2152 16.7028 12.3383V12.96C16.7028 14.3648 15.5599 15.5077 14.155 15.5077H11.6196C11.1403 15.5077 10.7517 15.8963 10.7517 16.3756C10.7517 16.855 11.1403 17.2435 11.6196 17.2435H14.155C16.517 17.2435 18.4386 15.3219 18.4386 12.96V12.3383C18.79 12.0743 19.0172 11.6542 19.0172 11.181V8.56395V7.5604C19.0172 7.07745 18.7804 6.65013 18.4167 6.38738C18.1346 2.81812 15.1401 0 11.4996 0C7.85902 0 4.86453 2.81812 4.58248 6.38733C4.21879 6.65007 3.98193 7.07744 3.98193 7.56035V11.1809C3.98193 11.9821 4.63278 12.6275 5.42847 12.6275ZM11.4996 1.73587C14.1946 1.73587 16.4174 3.7954 16.6772 6.42322C16.5067 6.5574 16.367 6.72888 16.2707 6.92565C15.4517 4.789 13.6236 3.3014 11.4995 3.3014C9.32971 3.3014 7.53085 4.84012 6.73158 6.91711C6.73049 6.91994 6.72946 6.92282 6.72837 6.9257C6.63211 6.72893 6.49239 6.55745 6.32183 6.42328C6.5818 3.7954 8.8046 1.73587 11.4996 1.73587Z" fill="white"/>
</svg>
