<svg width="200" height="63" viewBox="0 0 200 63" fill="none" xmlns="http://www.w3.org/2000/svg">
<path d="M29.6777 37.5589L27.8743 39.1368C26.5785 40.2707 26.5121 42.2643 27.7297 43.4819L41.8937 57.6459C48.8147 52.6475 54.9082 42.2701 58.8475 31.4752C60.1204 27.9871 56.2197 26.6959 54.2865 29.8661C48.9662 38.591 44.2394 43.6879 41.8937 45.5309L33.7011 37.6533C32.5876 36.5827 30.8402 36.5417 29.6777 37.5589Z" fill="white"/>
<path d="M29.4196 9.13479L42.3771 14.0958C44.169 14.7819 44.8533 16.9591 43.7761 18.5469L35.6647 30.5036C35.2823 31.0672 35.3313 31.8185 35.7837 32.3277L39.5649 36.584C40.2102 37.3103 41.3669 37.2337 41.9109 36.4288L55.7361 15.9674C57.0606 14.0071 56.2433 11.3246 54.0507 10.4359L29.3793 0.435995C27.7803 -0.212091 25.9789 -0.134664 24.4414 0.648224L1.60771 12.2755C0.461457 12.8592 -0.186012 14.1142 0.0472691 15.3792C3.47387 33.96 13.8953 51.5619 29.432 62.3663C30.4447 63.0705 31.7904 63.028 32.7869 62.301L34.5429 61.0199C36.251 59.7737 36.1588 57.1792 34.4646 55.9143C23.4409 47.6835 12.5935 33.2613 9.75889 19.6732C9.50332 18.4481 10.1244 17.2268 11.2247 16.6305L24.4541 9.46052C25.9823 8.63226 27.7962 8.51327 29.4196 9.13479Z" fill="white"/>
<path d="M67.0317 45.2568C66.7935 45.2568 66.5911 45.1735 66.4244 45.0068C66.2577 44.8401 66.1744 44.6377 66.1744 44.3996V21.1455C66.1744 20.8835 66.2458 20.6692 66.3887 20.5025C66.5554 20.3358 66.7697 20.2525 67.0317 20.2525H76.6048C79.4624 20.2525 81.7128 20.9312 83.356 22.2885C84.9991 23.6221 85.8207 25.5867 85.8207 28.1824C85.8207 30.7781 84.9991 32.7427 83.356 34.0763C81.7366 35.3861 79.4862 36.0409 76.6048 36.0409H71.2824V44.3996C71.2824 44.6377 71.1991 44.8401 71.0324 45.0068C70.8895 45.1735 70.6871 45.2568 70.4251 45.2568H67.0317ZM76.4262 32.076C77.8074 32.076 78.8671 31.7545 79.6053 31.1115C80.3435 30.4447 80.7126 29.4684 80.7126 28.1824C80.7126 26.9441 80.3554 25.9797 79.641 25.2891C78.9266 24.5746 77.855 24.2174 76.4262 24.2174H71.211V32.076H76.4262Z" fill="white"/>
<path d="M95.0165 45.6141C93.802 45.6141 92.6827 45.3759 91.6588 44.8996C90.6586 44.3996 89.8608 43.7328 89.2655 42.8993C88.6939 42.0658 88.4082 41.149 88.4082 40.1488C88.4082 38.5295 89.0631 37.2197 90.3728 36.2195C91.6826 35.2194 93.4805 34.5407 95.7666 34.1835L100.66 33.4691V32.7189C100.66 31.6711 100.398 30.8853 99.8745 30.3614C99.3506 29.8375 98.5052 29.5755 97.3383 29.5755C96.5525 29.5755 95.9095 29.7303 95.4094 30.0399C94.9331 30.3257 94.5521 30.6114 94.2664 30.8972C93.9806 31.2068 93.7901 31.4092 93.6948 31.5044C93.5996 31.7902 93.421 31.9331 93.159 31.9331H90.4085C90.1942 31.9331 90.0037 31.8616 89.837 31.7188C89.6941 31.5759 89.6227 31.3854 89.6227 31.1472C89.6465 30.5519 89.9323 29.8732 90.48 29.1112C91.0515 28.3491 91.9207 27.6942 93.0876 27.1465C94.2544 26.5988 95.6833 26.325 97.374 26.325C100.184 26.325 102.232 26.956 103.518 28.2181C104.804 29.4803 105.447 31.1353 105.447 33.1833V44.3996C105.447 44.6377 105.364 44.8401 105.197 45.0068C105.054 45.1735 104.852 45.2568 104.59 45.2568H101.696C101.458 45.2568 101.256 45.1735 101.089 45.0068C100.922 44.8401 100.839 44.6377 100.839 44.3996V43.0065C100.315 43.7685 99.5649 44.3996 98.5885 44.8996C97.636 45.3759 96.4453 45.6141 95.0165 45.6141ZM96.231 42.2206C97.5407 42.2206 98.6124 41.792 99.4458 40.9347C100.279 40.0774 100.696 38.8271 100.696 37.184V36.4339L97.124 37.0054C95.7428 37.2197 94.695 37.565 93.9806 38.0413C93.29 38.5176 92.9447 39.101 92.9447 39.7916C92.9447 40.5536 93.2662 41.149 93.9091 41.5776C94.5521 42.0063 95.3261 42.2206 96.231 42.2206Z" fill="white"/>
<path d="M113.613 52.0438C113.423 52.0438 113.256 51.9723 113.113 51.8294C112.97 51.6865 112.899 51.5198 112.899 51.3293C112.899 51.115 112.946 50.9245 113.042 50.7578L115.828 44.1495L108.97 27.9681C108.874 27.7538 108.827 27.5871 108.827 27.468C108.85 27.2537 108.934 27.0751 109.077 26.9322C109.22 26.7655 109.398 26.6822 109.613 26.6822H112.506C112.958 26.6822 113.28 26.9084 113.47 27.3609L118.221 39.0415L123.115 27.3609C123.305 26.9084 123.627 26.6822 124.079 26.6822H126.937C127.127 26.6822 127.294 26.7536 127.437 26.8965C127.604 27.0394 127.687 27.2061 127.687 27.3966C127.687 27.5633 127.639 27.7538 127.544 27.9681L117.435 51.3651C117.221 51.8175 116.888 52.0438 116.435 52.0438H113.613Z" fill="white"/>
<path d="M138.054 45.2568C137.697 45.2568 137.423 45.1854 137.232 45.0425C137.042 44.8758 136.887 44.6496 136.768 44.3638L130.088 27.7895L130.017 27.468C130.017 27.2537 130.088 27.0751 130.231 26.9322C130.398 26.7655 130.588 26.6822 130.803 26.6822H133.696C134.148 26.6822 134.458 26.9084 134.625 27.3609L139.376 39.8988L144.126 27.3609C144.198 27.1942 144.305 27.0394 144.448 26.8965C144.615 26.7536 144.817 26.6822 145.055 26.6822H147.984C148.175 26.6822 148.341 26.7655 148.484 26.9322C148.651 27.0751 148.734 27.2537 148.734 27.468C148.734 27.6109 148.722 27.7181 148.699 27.7895L141.983 44.3638C141.864 44.6496 141.709 44.8758 141.519 45.0425C141.328 45.1854 141.054 45.2568 140.697 45.2568H138.054Z" fill="white"/>
<path d="M153.422 23.6102C153.183 23.6102 152.981 23.5268 152.814 23.3602C152.648 23.1935 152.564 22.991 152.564 22.7529V20.181C152.564 19.9429 152.648 19.7405 152.814 19.5738C152.981 19.4071 153.183 19.3237 153.422 19.3237H156.672C156.91 19.3237 157.113 19.4071 157.279 19.5738C157.47 19.7405 157.565 19.9429 157.565 20.181V22.7529C157.565 22.991 157.482 23.1935 157.315 23.3602C157.148 23.5268 156.934 23.6102 156.672 23.6102H153.422ZM153.564 45.2568C153.326 45.2568 153.124 45.1735 152.957 45.0068C152.79 44.8401 152.707 44.6377 152.707 44.3996V27.5395C152.707 27.3013 152.79 27.0989 152.957 26.9322C153.124 26.7655 153.326 26.6822 153.564 26.6822H156.529C156.791 26.6822 156.994 26.7655 157.136 26.9322C157.303 27.0751 157.387 27.2775 157.387 27.5395V44.3996C157.387 44.6377 157.303 44.8401 157.136 45.0068C156.994 45.1735 156.791 45.2568 156.529 45.2568H153.564Z" fill="white"/>
<path d="M163.733 45.2568C163.495 45.2568 163.292 45.1735 163.126 45.0068C162.959 44.8401 162.876 44.6377 162.876 44.3996V20.7526C162.876 20.4906 162.959 20.2882 163.126 20.1453C163.292 19.9786 163.495 19.8953 163.733 19.8953H166.698C166.96 19.8953 167.162 19.9786 167.305 20.1453C167.472 20.2882 167.555 20.4906 167.555 20.7526V44.3996C167.555 44.6377 167.472 44.8401 167.305 45.0068C167.162 45.1735 166.96 45.2568 166.698 45.2568H163.733Z" fill="white"/>
<path d="M173.901 45.2568C173.663 45.2568 173.46 45.1735 173.294 45.0068C173.127 44.8401 173.044 44.6377 173.044 44.3996V20.7526C173.044 20.4906 173.127 20.2882 173.294 20.1453C173.46 19.9786 173.663 19.8953 173.901 19.8953H176.866C177.128 19.8953 177.33 19.9786 177.473 20.1453C177.64 20.2882 177.723 20.4906 177.723 20.7526V44.3996C177.723 44.6377 177.64 44.8401 177.473 45.0068C177.33 45.1735 177.128 45.2568 176.866 45.2568H173.901Z" fill="white"/>
<path d="M191.177 45.6141C188.534 45.6141 186.426 44.852 184.854 43.3279C183.307 41.78 182.485 39.613 182.39 36.8268L182.354 35.9338L182.39 35.0408C182.509 32.326 183.342 30.1947 184.89 28.6468C186.462 27.0989 188.558 26.325 191.177 26.325C193.987 26.325 196.154 27.1822 197.678 28.8968C199.226 30.6114 200 32.8975 200 35.7552V36.5053C200 36.7434 199.917 36.9459 199.75 37.1126C199.583 37.2793 199.369 37.3626 199.107 37.3626H187.248V37.6484C187.295 38.9581 187.653 40.0655 188.319 40.9704C189.01 41.8515 189.951 42.292 191.141 42.292C192.546 42.292 193.677 41.7443 194.535 40.6489C194.749 40.3869 194.916 40.2202 195.035 40.1488C195.178 40.0774 195.38 40.0416 195.642 40.0416H198.714C198.928 40.0416 199.107 40.1131 199.25 40.256C199.417 40.375 199.5 40.5298 199.5 40.7203C199.5 41.2919 199.155 41.9706 198.464 42.7564C197.797 43.5184 196.833 44.1852 195.571 44.7568C194.309 45.3283 192.844 45.6141 191.177 45.6141ZM195.142 34.3621V34.2549C195.142 32.8499 194.785 31.7188 194.07 30.8615C193.38 30.0042 192.415 29.5755 191.177 29.5755C189.939 29.5755 188.974 30.0042 188.284 30.8615C187.593 31.7188 187.248 32.8499 187.248 34.2549V34.3621H195.142Z" fill="white"/>
</svg>
