<svg width="24" height="26" viewBox="0 0 24 26" fill="none" xmlns="http://www.w3.org/2000/svg">
<rect width="24" height="26" fill="#E5E5E5"/>
<g clip-path="url(#clip0)">
<rect width="1920" height="1020" transform="translate(-1615 -169)" fill="#EEEEEE"/>
<path fill-rule="evenodd" clip-rule="evenodd" d="M22.3589 4.55371C22.8452 4.55371 23.25 4.95746 23.25 5.4712V5.9462C23.25 6.44744 22.8452 6.86369 22.3589 6.86369H1.64232C1.15482 6.86369 0.75 6.44744 0.75 5.9462V5.4712C0.75 4.95746 1.15482 4.55371 1.64232 4.55371H5.28696C6.02731 4.55371 6.67163 4.02746 6.83818 3.28497L7.02904 2.43248C7.32567 1.27124 8.30187 0.5 9.41909 0.5H14.5809C15.686 0.5 16.6731 1.27124 16.9588 2.37123L17.163 3.28372C17.3284 4.02746 17.9727 4.55371 18.7143 4.55371H22.3589ZM20.5072 21.9176C20.8877 18.3714 21.5539 9.94644 21.5539 9.86144C21.5783 9.60394 21.4944 9.36019 21.3278 9.16395C21.1491 8.9802 20.923 8.87145 20.6738 8.87145H3.3356C3.08517 8.87145 2.84689 8.9802 2.68156 9.16395C2.51379 9.36019 2.43112 9.60394 2.44328 9.86144C2.44552 9.87706 2.46942 10.1738 2.50939 10.67C2.68693 12.874 3.18141 19.0127 3.50093 21.9176C3.72705 24.0575 5.13117 25.4025 7.16502 25.4513C8.73448 25.4875 10.3513 25.5 12.0047 25.5C13.562 25.5 15.1436 25.4875 16.7617 25.4513C18.866 25.415 20.269 24.0938 20.5072 21.9176Z" fill="#002178"/>
<rect x="-29.5" y="-14.5" width="215" height="55" rx="9.5" stroke="#EE7326"/>
</g>
<defs>
<clipPath id="clip0">
<rect width="1920" height="1020" fill="white" transform="translate(-1615 -169)"/>
</clipPath>
</defs>
</svg>
