<svg width="24" height="24" viewBox="0 0 24 24" fill="none" xmlns="http://www.w3.org/2000/svg">
<path fill-rule="evenodd" clip-rule="evenodd" d="M8.7205 22.0349L19.7035 7.8318C20.3004 7.06588 20.5126 6.18037 20.3136 5.27874C20.1412 4.45907 19.6372 3.67972 18.8811 3.08848L17.0373 1.62383C15.4323 0.347299 13.4426 0.481671 12.3019 1.94632L11.0683 3.54669C10.9091 3.7469 10.9489 4.04252 11.1479 4.20376C11.1479 4.20376 14.265 6.70308 14.3314 6.75683C14.5436 6.95838 14.7028 7.22713 14.7426 7.54962C14.8089 8.18116 14.3712 8.7724 13.7212 8.85302C13.4161 8.89333 13.1243 8.79927 12.9121 8.62459L9.63575 6.01778C9.47657 5.89819 9.23781 5.92372 9.10517 6.08497L1.31892 16.1628C0.814873 16.7944 0.642435 17.6141 0.814873 18.4068L1.80971 22.7202C1.86277 22.9486 2.06173 23.1099 2.30049 23.1099L6.67777 23.0561C7.47364 23.0427 8.21645 22.6799 8.7205 22.0349ZM14.8496 20.6915H21.9872C22.6836 20.6915 23.25 21.2653 23.25 21.9708C23.25 22.6775 22.6836 23.25 21.9872 23.25H14.8496C14.1532 23.25 13.5868 22.6775 13.5868 21.9708C13.5868 21.2653 14.1532 20.6915 14.8496 20.6915Z" fill="#002178"/>
</svg>
