<svg width="30" height="30" viewBox="0 0 30 30" fill="none" xmlns="http://www.w3.org/2000/svg">
<path fill-rule="evenodd" clip-rule="evenodd" d="M2.5 6.5625C2.5 5.87214 3.05964 5.3125 3.75 5.3125H26.25C26.9404 5.3125 27.5 5.87214 27.5 6.5625V23.4375C27.5 24.1279 26.9404 24.6875 26.25 24.6875H3.75C3.05964 24.6875 2.5 24.1279 2.5 23.4375V6.5625ZM5 7.8125V22.1875H25V7.8125H5Z" fill="#002178"/>
<path fill-rule="evenodd" clip-rule="evenodd" d="M2.80094 5.74904C3.25022 5.22488 4.03934 5.16417 4.5635 5.61344L15 14.5588L25.4365 5.61344C25.9607 5.16417 26.7498 5.22488 27.1991 5.74904C27.6484 6.27321 27.5877 7.06233 27.0635 7.5116L15.8135 17.1543C15.3454 17.5555 14.6547 17.5555 14.1865 17.1543L2.93654 7.5116C2.41238 7.06233 2.35167 6.27321 2.80094 5.74904Z" fill="#002178"/>
</svg>
