<svg width="24" height="24" viewBox="0 0 24 24" fill="none" xmlns="http://www.w3.org/2000/svg">
<g clip-path="url(#clip0)">
<path d="M15 6.50012C14.448 6.50012 14 6.05212 14 5.50012V4.00012H10V5.50012C10 6.05212 9.552 6.50012 9 6.50012C8.448 6.50012 8 6.05212 8 5.50012V4.00012C8 2.89712 8.897 2.00012 10 2.00012H14C15.103 2.00012 16 2.89712 16 4.00012V5.50012C16 6.05212 15.552 6.50012 15 6.50012Z" fill="#002178"/>
<path d="M12.71 15.3801C12.53 15.4501 12.27 15.5001 12 15.5001C11.73 15.5001 11.47 15.4501 11.23 15.3601L0 11.6201V19.2501C0 20.7701 1.23 22.0001 2.75 22.0001H21.25C22.77 22.0001 24 20.7701 24 19.2501V11.6201L12.71 15.3801Z" fill="#002178"/>
<path d="M24 7.75012V10.0401L12.24 13.9601C12.16 13.9901 12.08 14.0001 12 14.0001C11.92 14.0001 11.84 13.9901 11.76 13.9601L0 10.0401V7.75012C0 6.23012 1.23 5.00012 2.75 5.00012H21.25C22.77 5.00012 24 6.23012 24 7.75012Z" fill="#002178"/>
</g>
<defs>
<clipPath id="clip0">
<rect width="24" height="24" fill="white"/>
</clipPath>
</defs>
</svg>
