<svg width="24" height="24" viewBox="0 0 24 24" fill="none" xmlns="http://www.w3.org/2000/svg">
<g clip-path="url(#clip0)">
<path d="M6.50221 6.42188H6.20127L5.63892 9.23438H7.06457L6.50221 6.42188Z" fill="#002178"/>
<path d="M17.8767 12.0469C18.1803 12.8625 18.5841 13.5226 19.0311 14.0844C19.478 13.5226 19.9287 12.8624 20.2323 12.0469H17.8767Z" fill="#002178"/>
<path d="M21.8908 4.26562H13.1588L14.9795 18.8756C15.0117 19.4731 14.8483 20.0357 14.4583 20.4762L11.375 24H21.8908C23.0539 24 24.0001 23.0538 24.0001 21.8906V6.42188C24.0001 5.25872 23.0539 4.26562 21.8908 4.26562ZM21.8908 12.0469H21.703C21.3029 13.3305 20.6685 14.3348 20.0091 15.1267C20.5256 15.5989 21.078 15.9862 21.6271 16.4201C21.9299 16.6625 21.9794 17.1047 21.7363 17.4082C21.4943 17.7113 21.0504 17.7604 20.7482 17.5174C20.1515 17.0464 19.5915 16.6522 19.0314 16.1383C18.4713 16.6522 17.9582 17.0464 17.3615 17.5174C17.0593 17.7604 16.6154 17.7113 16.3734 17.4082C16.1303 17.1047 16.1798 16.6625 16.4826 16.4201C17.0317 15.9862 17.5372 15.5989 18.0537 15.1267C17.3943 14.3349 16.8067 13.3305 16.4067 12.0469H16.2189C15.8303 12.0469 15.5158 11.7324 15.5158 11.3438C15.5158 10.9551 15.8303 10.6406 16.2189 10.6406H18.3283V9.9375C18.3283 9.54886 18.6428 9.23438 19.0314 9.23438C19.42 9.23438 19.7345 9.54886 19.7345 9.9375V10.6406H21.8908C22.2794 10.6406 22.5939 10.9551 22.5939 11.3438C22.5939 11.7324 22.2794 12.0469 21.8908 12.0469Z" fill="#002178"/>
<path d="M11.4452 1.84777C11.314 0.794437 10.4138 0 9.35231 0H2.10938C0.946219 0 0 0.946219 0 2.10938V17.6719C0 18.835 0.946219 19.7812 2.10938 19.7812C6.31266 19.7812 9.33642 19.7812 13.1977 19.7812C13.4028 19.5468 13.5748 19.4 13.582 19.0939C13.5838 19.0172 11.4547 1.92389 11.4452 1.84777ZM8.62238 13.4394C8.24953 13.5161 7.87186 13.2741 7.79498 12.888L7.34559 10.6406H5.35758L4.90819 12.888C4.83267 13.2684 4.46597 13.5183 4.0808 13.4394C3.70041 13.3632 3.45319 12.9931 3.52941 12.612L4.93561 5.58075C5.00152 5.25253 5.28994 5.01562 5.625 5.01562H7.07812C7.41319 5.01562 7.70161 5.25253 7.76752 5.58075L9.17377 12.612C9.24998 12.9931 9.00281 13.3632 8.62238 13.4394Z" fill="#002178"/>
<path d="M8.21533 21.1875L8.33599 22.1522C8.41643 22.7983 8.84571 23.4571 9.55183 23.7861C10.8844 22.3192 10.0782 23.2066 11.9124 21.1875H8.21533Z" fill="#002178"/>
</g>
<defs>
<clipPath id="clip0">
<rect width="24" height="24" fill="white"/>
</clipPath>
</defs>
</svg>
