<svg width="21" height="23" viewBox="0 0 21 23" fill="none" xmlns="http://www.w3.org/2000/svg">
<path d="M10.5 0C4.71034 0 0 3.58645 0 7.99469C0 13.5354 10.5103 23 10.5103 23C10.5103 23 21 13.2629 21 7.99469C21 3.58645 16.2898 0 10.5 0ZM13.6681 10.3355C12.7945 11.0005 11.6473 11.3331 10.5 11.3331C9.35284 11.3331 8.2053 11.0005 7.33212 10.3355C5.58519 9.00557 5.58519 6.84146 7.33212 5.51135C8.17802 4.867 9.30324 4.51212 10.5 4.51212C11.6968 4.51212 12.8218 4.86714 13.6681 5.51135C15.415 6.84146 15.415 9.00557 13.6681 10.3355Z" fill="#002178"/>
</svg>
