<svg width="24" height="24" viewBox="0 0 24 24" fill="none" xmlns="http://www.w3.org/2000/svg">
<path d="M21 23.9997H3C1.34667 23.9997 0 22.9907 0 21.7497V11.2498C0 10.0088 1.34667 8.99976 3 8.99976H21C22.6533 8.99976 24 10.0088 24 11.2498V21.7497C24 22.9907 22.6533 23.9997 21 23.9997ZM3 10.4998C2.44933 10.4998 2 10.8358 2 11.2498V21.7497C2 22.1637 2.44933 22.4997 3 22.4997H21C21.5507 22.4997 22 22.1637 22 21.7497V11.2498C22 10.8358 21.5507 10.4998 21 10.4998H3Z" fill="#002178"/>
<path d="M19 10.5C18.448 10.5 18 10.164 18 9.74998V5.99999C18 3.51899 15.308 1.5 12 1.5C8.692 1.5 6 3.51899 6 5.99999V9.74998C6 10.164 5.552 10.5 5 10.5C4.448 10.5 4 10.164 4 9.74998V5.99999C4 2.691 7.588 0 12 0C16.412 0 20 2.691 20 5.99999V9.74998C20 10.164 19.552 10.5 19 10.5Z" fill="#002178"/>
<path d="M12.0016 17.0009C10.531 17.0009 9.33496 16.1039 9.33496 15.0009C9.33496 13.8979 10.531 13.0009 12.0016 13.0009C13.4723 13.0009 14.6683 13.8979 14.6683 15.0009C14.6683 16.1039 13.4723 17.0009 12.0016 17.0009ZM12.0016 14.5009C11.6349 14.5009 11.3349 14.7249 11.3349 15.0009C11.3349 15.2769 11.6349 15.5009 12.0016 15.5009C12.3683 15.5009 12.6683 15.2769 12.6683 15.0009C12.6683 14.7249 12.3683 14.5009 12.0016 14.5009Z" fill="#002178"/>
<path d="M12 20.0001C11.448 20.0001 11 19.6641 11 19.2501V16.5001C11 16.0861 11.448 15.7501 12 15.7501C12.552 15.7501 13 16.0861 13 16.5001V19.2501C13 19.6641 12.552 20.0001 12 20.0001Z" fill="#002178"/>
</svg>
