<svg width="282" height="134" viewBox="0 0 282 134" fill="none" xmlns="http://www.w3.org/2000/svg">
<path d="M14.832 126.217H9.95215L9.02441 129H6.06494L11.0933 115.492H13.6724L18.7285 129H15.769L14.832 126.217ZM10.7036 123.962H14.0806L12.3828 118.906L10.7036 123.962ZM27.7546 125.456C27.7546 124.93 27.5691 124.528 27.198 124.25C26.8269 123.965 26.1589 123.669 25.1941 123.359C24.2292 123.044 23.4654 122.735 22.9026 122.432C21.3687 121.603 20.6018 120.486 20.6018 119.083C20.6018 118.353 20.8059 117.703 21.2141 117.134C21.6285 116.559 22.2191 116.111 22.9861 115.789C23.7592 115.467 24.6251 115.307 25.5837 115.307C26.5486 115.307 27.4083 115.483 28.1628 115.835C28.9174 116.182 29.5019 116.674 29.9163 117.311C30.3368 117.948 30.5471 118.671 30.5471 119.481H27.7639C27.7639 118.863 27.5691 118.384 27.1794 118.043C26.7898 117.697 26.2424 117.524 25.5373 117.524C24.857 117.524 24.3282 117.669 23.9509 117.96C23.5736 118.244 23.385 118.622 23.385 119.092C23.385 119.531 23.6046 119.899 24.0437 120.196C24.489 120.493 25.1415 120.771 26.0012 121.031C27.5845 121.507 28.738 122.098 29.4617 122.803C30.1853 123.508 30.5471 124.386 30.5471 125.438C30.5471 126.606 30.1049 127.525 29.2204 128.193C28.336 128.855 27.1454 129.186 25.6487 129.186C24.6096 129.186 23.6633 128.997 22.8098 128.62C21.9563 128.236 21.3038 127.714 20.8523 127.052C20.407 126.39 20.1843 125.623 20.1843 124.751H22.9768C22.9768 126.242 23.8674 126.987 25.6487 126.987C26.3105 126.987 26.8269 126.854 27.198 126.588C27.5691 126.316 27.7546 125.938 27.7546 125.456ZM43.3677 117.747H39.23V129H36.4468V117.747H32.3647V115.492H43.3677V117.747ZM50.7238 124.055H48.5066V129H45.7234V115.492H50.7424C52.3381 115.492 53.5689 115.848 54.4348 116.559C55.3007 117.27 55.7336 118.275 55.7336 119.574C55.7336 120.496 55.5326 121.266 55.1306 121.884C54.7348 122.497 54.1317 122.985 53.3215 123.35L56.2439 128.87V129H53.2566L50.7238 124.055ZM48.5066 121.801H50.7517C51.4506 121.801 51.9918 121.625 52.3752 121.272C52.7587 120.913 52.9504 120.422 52.9504 119.797C52.9504 119.16 52.768 118.659 52.403 118.294C52.0443 117.929 51.4908 117.747 50.7424 117.747H48.5066V121.801ZM69.7138 122.552C69.7138 123.882 69.4788 125.048 69.0088 126.05C68.5387 127.052 67.8645 127.825 66.9863 128.369C66.1142 128.913 65.1123 129.186 63.9804 129.186C62.861 129.186 61.8621 128.917 60.9838 128.378C60.1056 127.84 59.4253 127.073 58.9428 126.078C58.4604 125.076 58.2161 123.925 58.2099 122.626V121.958C58.2099 120.629 58.448 119.46 58.9243 118.452C59.4067 117.437 60.0839 116.661 60.956 116.123C61.8343 115.579 62.8362 115.307 63.9619 115.307C65.0875 115.307 66.0864 115.579 66.9585 116.123C67.8367 116.661 68.514 117.437 68.9902 118.452C69.4726 119.46 69.7138 120.626 69.7138 121.949V122.552ZM66.8935 121.94C66.8935 120.524 66.6399 119.447 66.1328 118.711C65.6256 117.975 64.902 117.607 63.9619 117.607C63.028 117.607 62.3074 117.972 61.8003 118.702C61.2931 119.426 61.0364 120.49 61.0302 121.894V122.552C61.0302 123.931 61.2838 125.001 61.791 125.762C62.2981 126.523 63.028 126.903 63.9804 126.903C64.9143 126.903 65.6318 126.538 66.1328 125.809C66.6338 125.073 66.8873 124.003 66.8935 122.599V121.94ZM75.2795 126.764H81.1892V129H72.4963V115.492H75.2795V126.764ZM94.0561 122.552C94.0561 123.882 93.8211 125.048 93.351 126.05C92.881 127.052 92.2068 127.825 91.3286 128.369C90.4565 128.913 89.4545 129.186 88.3227 129.186C87.2032 129.186 86.2044 128.917 85.3261 128.378C84.4479 127.84 83.7675 127.073 83.2851 126.078C82.8027 125.076 82.5584 123.925 82.5522 122.626V121.958C82.5522 120.629 82.7903 119.46 83.2665 118.452C83.749 117.437 84.4262 116.661 85.2983 116.123C86.1765 115.579 87.1785 115.307 88.3041 115.307C89.4298 115.307 90.4286 115.579 91.3007 116.123C92.179 116.661 92.8562 117.437 93.3325 118.452C93.8149 119.46 94.0561 120.626 94.0561 121.949V122.552ZM91.2358 121.94C91.2358 120.524 90.9822 119.447 90.475 118.711C89.9679 117.975 89.2442 117.607 88.3041 117.607C87.3702 117.607 86.6497 117.972 86.1425 118.702C85.6354 119.426 85.3787 120.49 85.3725 121.894V122.552C85.3725 123.931 85.6261 125.001 86.1332 125.762C86.6404 126.523 87.3702 126.903 88.3227 126.903C89.2566 126.903 89.9741 126.538 90.475 125.809C90.976 125.073 91.2296 124.003 91.2358 122.599V121.94ZM107.526 127.293C107.025 127.893 106.317 128.36 105.402 128.694C104.486 129.022 103.472 129.186 102.359 129.186C101.19 129.186 100.163 128.932 99.2785 128.425C98.4002 127.911 97.7199 127.169 97.2375 126.198C96.7612 125.227 96.5169 124.086 96.5046 122.775V121.856C96.5046 120.508 96.7303 119.342 97.1818 118.359C97.6395 117.369 98.2951 116.615 99.1486 116.095C100.008 115.569 101.013 115.307 102.164 115.307C103.766 115.307 105.018 115.69 105.921 116.457C106.824 117.218 107.359 118.328 107.526 119.788H104.817C104.693 119.014 104.418 118.449 103.991 118.09C103.571 117.731 102.989 117.552 102.247 117.552C101.301 117.552 100.58 117.907 100.086 118.619C99.5908 119.33 99.3403 120.388 99.3342 121.792V122.654C99.3342 124.071 99.6032 125.141 100.141 125.864C100.679 126.588 101.468 126.95 102.507 126.95C103.552 126.95 104.298 126.727 104.743 126.282V123.953H102.21V121.903H107.526V127.293ZM118.677 123.146H113.333V126.764H119.604V129H110.55V115.492H119.586V117.747H113.333V120.966H118.677V123.146ZM126.998 124.055H124.78V129H121.997V115.492H127.016C128.612 115.492 129.843 115.848 130.709 116.559C131.575 117.27 132.007 118.275 132.007 119.574C132.007 120.496 131.806 121.266 131.404 121.884C131.009 122.497 130.406 122.985 129.595 123.35L132.518 128.87V129H129.53L126.998 124.055ZM124.78 121.801H127.026C127.724 121.801 128.266 121.625 128.649 121.272C129.033 120.913 129.224 120.422 129.224 119.797C129.224 119.16 129.042 118.659 128.677 118.294C128.318 117.929 127.765 117.747 127.016 117.747H124.78V121.801ZM141.896 125.456C141.896 124.93 141.711 124.528 141.34 124.25C140.969 123.965 140.301 123.669 139.336 123.359C138.371 123.044 137.607 122.735 137.044 122.432C135.51 121.603 134.744 120.486 134.744 119.083C134.744 118.353 134.948 117.703 135.356 117.134C135.77 116.559 136.361 116.111 137.128 115.789C137.901 115.467 138.767 115.307 139.725 115.307C140.69 115.307 141.55 115.483 142.305 115.835C143.059 116.182 143.644 116.674 144.058 117.311C144.479 117.948 144.689 118.671 144.689 119.481H141.906C141.906 118.863 141.711 118.384 141.321 118.043C140.932 117.697 140.384 117.524 139.679 117.524C138.999 117.524 138.47 117.669 138.093 117.96C137.715 118.244 137.527 118.622 137.527 119.092C137.527 119.531 137.746 119.899 138.185 120.196C138.631 120.493 139.283 120.771 140.143 121.031C141.726 121.507 142.88 122.098 143.603 122.803C144.327 123.508 144.689 124.386 144.689 125.438C144.689 126.606 144.247 127.525 143.362 128.193C142.478 128.855 141.287 129.186 139.79 129.186C138.751 129.186 137.805 128.997 136.952 128.62C136.098 128.236 135.446 127.714 134.994 127.052C134.549 126.39 134.326 125.623 134.326 124.751H137.119C137.119 126.242 138.009 126.987 139.79 126.987C140.452 126.987 140.969 126.854 141.34 126.588C141.711 126.316 141.896 125.938 141.896 125.456ZM163.353 125.104L165.172 115.492H167.946L164.949 129H162.147L159.949 119.964L157.75 129H154.948L151.952 115.492H154.725L156.553 125.085L158.78 115.492H161.136L163.353 125.104ZM173.177 129H170.394V115.492H173.177V129ZM186.415 117.747H182.278V129H179.494V117.747H175.412V115.492H186.415V117.747ZM199.765 129H196.982V123.211H191.554V129H188.771V115.492H191.554V120.966H196.982V115.492H199.765V129ZM211.239 126.764H217.149V129H208.456V115.492H211.239V126.764ZM227.641 123.146H222.297V126.764H228.569V129H219.514V115.492H228.55V117.747H222.297V120.966H227.641V123.146ZM241.649 127.293C241.148 127.893 240.44 128.36 239.524 128.694C238.609 129.022 237.595 129.186 236.482 129.186C235.313 129.186 234.286 128.932 233.401 128.425C232.523 127.911 231.843 127.169 231.36 126.198C230.884 125.227 230.64 124.086 230.628 122.775V121.856C230.628 120.508 230.853 119.342 231.305 118.359C231.762 117.369 232.418 116.615 233.272 116.095C234.131 115.569 235.136 115.307 236.287 115.307C237.889 115.307 239.141 115.69 240.044 116.457C240.947 117.218 241.482 118.328 241.649 119.788H238.94C238.816 119.014 238.541 118.449 238.114 118.09C237.694 117.731 237.112 117.552 236.37 117.552C235.424 117.552 234.703 117.907 234.209 118.619C233.714 119.33 233.463 120.388 233.457 121.792V122.654C233.457 124.071 233.726 125.141 234.264 125.864C234.802 126.588 235.591 126.95 236.63 126.95C237.675 126.95 238.42 126.727 238.866 126.282V123.953H236.333V121.903H241.649V127.293ZM252.299 126.217H247.419L246.491 129H243.532L248.56 115.492H251.139L256.195 129H253.236L252.299 126.217ZM248.17 123.962H251.547L249.849 118.906L248.17 123.962ZM268.617 124.5C268.512 125.954 267.974 127.098 267.002 127.933C266.038 128.768 264.764 129.186 263.18 129.186C261.448 129.186 260.085 128.604 259.089 127.441C258.099 126.272 257.605 124.671 257.605 122.636V121.81C257.605 120.511 257.833 119.367 258.291 118.377C258.749 117.388 259.401 116.63 260.249 116.104C261.102 115.573 262.092 115.307 263.217 115.307C264.776 115.307 266.031 115.724 266.984 116.559C267.936 117.394 268.487 118.566 268.635 120.075H265.852C265.784 119.203 265.54 118.572 265.119 118.183C264.705 117.787 264.071 117.589 263.217 117.589C262.29 117.589 261.594 117.923 261.13 118.591C260.672 119.253 260.437 120.282 260.425 121.68V122.701C260.425 124.16 260.644 125.227 261.084 125.901C261.529 126.576 262.228 126.913 263.18 126.913C264.04 126.913 264.68 126.718 265.101 126.328C265.527 125.932 265.772 125.323 265.834 124.5H268.617ZM275.862 121.578L278.673 115.492H281.716L277.281 124.102V129H274.451V124.102L270.017 115.492H273.069L275.862 121.578Z" fill="#1A1717"/>
<path d="M138.509 46.95C138.322 46.9509 138.141 46.8942 138.002 46.7908C137.862 46.6874 137.774 46.5447 137.753 46.3901L136.4 40.5522H127.859L126.562 46.3807C126.542 46.5352 126.453 46.678 126.313 46.7814C126.174 46.8848 125.993 46.9415 125.806 46.9405H120.661C120.131 46.9405 119.905 46.7015 120.037 46.2611L128.003 15.5619C128.024 15.3989 128.121 15.2491 128.272 15.1445C128.424 15.0399 128.619 14.9888 128.816 15.0021H135.507C135.704 14.9888 135.899 15.0399 136.051 15.1445C136.202 15.2491 136.299 15.3989 136.32 15.5619L144.286 46.2611C144.384 46.7015 144.191 46.9405 143.617 46.9405L138.509 46.95ZM132.127 21.9943L129.058 35.9285H135.201L132.127 21.9943Z" fill="#F36E23"/>
<path d="M162.308 15.0115C166.822 15.0115 169.219 17.0088 169.219 20.7613V24.9919C169.231 25.0768 169.219 25.1628 169.185 25.2434C169.151 25.3241 169.096 25.3973 169.023 25.4577C168.95 25.5181 168.862 25.5642 168.765 25.5925C168.668 25.6207 168.565 25.6304 168.463 25.6209H163.473C163.371 25.627 163.27 25.6149 163.175 25.5855C163.08 25.556 162.993 25.5099 162.922 25.4502C162.85 25.3905 162.794 25.3187 162.759 25.2396C162.724 25.1605 162.709 25.076 162.716 24.9919V21.8779C162.716 20.8399 162.093 20.28 160.796 20.28H158.493C157.295 20.28 156.573 20.8399 156.573 21.8779V27.3887L167.994 30.5026C168.371 30.5966 168.698 30.7932 168.925 31.0607C169.151 31.3282 169.263 31.6512 169.242 31.9778V41.2002C169.242 44.9526 166.845 46.95 162.331 46.95H156.959C152.497 46.95 150.048 44.9526 150.048 41.2002V37.0073C150.036 36.9224 150.048 36.8364 150.082 36.7558C150.116 36.6751 150.171 36.6019 150.244 36.5415C150.316 36.481 150.404 36.435 150.501 36.4067C150.598 36.3785 150.702 36.3687 150.804 36.3782H155.794C155.897 36.3655 156.002 36.373 156.101 36.4001C156.199 36.4272 156.289 36.4732 156.363 36.5343C156.436 36.5955 156.491 36.6702 156.524 36.7523C156.557 36.8344 156.566 36.9218 156.55 37.0073V40.0835C156.55 41.1593 157.272 41.6783 158.471 41.6783H160.773C162.021 41.6783 162.694 41.1593 162.694 40.0835V34.7741L151.322 31.6601C150.931 31.5796 150.587 31.3874 150.35 31.1171C150.113 30.8468 149.998 30.5157 150.025 30.1818V20.7613C150.025 17.0088 152.475 15.0115 156.936 15.0115H162.308Z" fill="#F36E23"/>
<path d="M193.404 15.0113C193.506 15.0018 193.609 15.0116 193.706 15.0398C193.803 15.0681 193.891 15.1141 193.964 15.1746C194.037 15.235 194.092 15.3082 194.126 15.3889C194.16 15.4695 194.172 15.5555 194.16 15.6404V19.6319C194.172 19.7169 194.16 19.8028 194.126 19.8835C194.092 19.9641 194.037 20.0374 193.964 20.0978C193.891 20.1582 193.803 20.2043 193.706 20.2325C193.609 20.2608 193.506 20.2705 193.404 20.261H187.839V46.2924C187.839 46.7297 187.597 46.9215 187.083 46.9215H182.092C181.99 46.9304 181.887 46.9203 181.791 46.8918C181.694 46.8633 181.607 46.8173 181.534 46.757C181.462 46.6967 181.406 46.6237 181.372 46.5433C181.338 46.463 181.326 46.3772 181.336 46.2924V20.2799H175.771C175.67 20.286 175.568 20.2739 175.473 20.2444C175.378 20.215 175.292 20.1688 175.22 20.1092C175.149 20.0495 175.093 19.9777 175.058 19.8986C175.022 19.8195 175.008 19.735 175.015 19.6508V15.6499C175.008 15.5657 175.022 15.4812 175.058 15.4021C175.093 15.323 175.149 15.2512 175.22 15.1915C175.292 15.1318 175.378 15.0857 175.473 15.0563C175.568 15.0268 175.67 15.0147 175.771 15.0208L193.404 15.0113Z" fill="#F36E23"/>
<path d="M220.61 30.5025C220.61 33.1761 219.411 34.9313 217.105 35.7711L220.417 46.2296C220.56 46.7108 220.273 46.9499 219.748 46.9499H214.757C214.56 46.964 214.364 46.9133 214.212 46.8086C214.059 46.7039 213.962 46.5536 213.941 46.39L210.742 36.2492H207.434V46.3145C207.441 46.3987 207.427 46.4832 207.391 46.5623C207.356 46.6413 207.301 46.7132 207.229 46.7728C207.157 46.8325 207.071 46.8786 206.976 46.9081C206.881 46.9376 206.779 46.9497 206.678 46.9436H201.669C201.567 46.9497 201.466 46.9376 201.371 46.9081C201.276 46.8786 201.189 46.8325 201.118 46.7728C201.046 46.7132 200.991 46.6413 200.955 46.5623C200.92 46.4832 200.905 46.3987 200.912 46.3145V15.6499C200.905 15.5657 200.92 15.4812 200.955 15.4021C200.991 15.3231 201.046 15.2512 201.118 15.1916C201.189 15.1319 201.276 15.0858 201.371 15.0563C201.466 15.0268 201.567 15.0147 201.669 15.0208H213.71C218.22 15.0208 220.621 17.0182 220.621 20.7706L220.61 30.5025ZM212.164 30.9806C213.411 30.9806 214.084 30.4207 214.084 29.3828V21.8778C214.084 20.8398 213.411 20.2799 212.164 20.2799H207.415V30.9743L212.164 30.9806Z" fill="#F36E23"/>
<path d="M227.328 20.7613C227.328 17.0088 229.725 15.0115 234.235 15.0115H239.611C244.121 15.0115 246.522 17.0088 246.522 20.7613V41.2065C246.522 44.9589 244.121 46.9563 239.611 46.9563H234.235C229.725 46.9563 227.328 44.9589 227.328 41.2065V20.7613ZM238.412 41.8104C239.66 41.8104 240.329 41.2914 240.329 40.2156V21.7584C240.329 20.7204 239.66 20.1605 238.412 20.1605H235.626C234.379 20.1605 233.709 20.7204 233.709 21.7584V40.2031C233.709 41.2788 234.379 41.7978 235.626 41.7978L238.412 41.8104Z" fill="#F36E23"/>
<path d="M120.468 58.7955C120.468 55.043 122.868 53.0457 127.379 53.0457H133.711C138.173 53.0457 140.622 55.043 140.622 58.7955V62.9474C140.63 63.0316 140.615 63.1161 140.58 63.1952C140.544 63.2743 140.489 63.3461 140.417 63.4058C140.345 63.4654 140.259 63.5116 140.164 63.541C140.069 63.5705 139.967 63.5826 139.866 63.5765H135.053C134.951 63.586 134.848 63.5763 134.751 63.548C134.654 63.5198 134.566 63.4737 134.494 63.4133C134.421 63.3529 134.366 63.2796 134.332 63.1989C134.298 63.1183 134.286 63.0323 134.297 62.9474V59.9152C134.297 58.8741 133.628 58.3174 132.381 58.3174H128.925C127.628 58.3174 127.005 58.8741 127.005 59.9152V78.1177C127.005 79.1966 127.677 79.7156 128.925 79.7156H132.381C133.628 79.7156 134.297 79.1966 134.297 78.1177V72.7705H131.802C131.7 72.78 131.597 72.7703 131.5 72.742C131.403 72.7138 131.315 72.6677 131.242 72.6073C131.17 72.5469 131.114 72.4736 131.08 72.393C131.046 72.3123 131.035 72.2264 131.046 72.1414V68.1436C131.032 68.0582 131.041 67.9711 131.074 67.8893C131.107 67.8075 131.162 67.7332 131.235 67.6722C131.309 67.6112 131.398 67.5652 131.496 67.5378C131.595 67.5105 131.699 67.5025 131.802 67.5145H139.855C139.957 67.505 140.06 67.5148 140.157 67.543C140.254 67.5713 140.342 67.6173 140.415 67.6778C140.487 67.7382 140.543 67.8114 140.577 67.8921C140.611 67.9727 140.622 68.0587 140.611 68.1436V79.2406C140.611 82.9931 138.161 84.9873 133.7 84.9873H127.379C122.868 84.9873 120.468 82.9931 120.468 79.2406V58.7955Z" fill="#F36E23"/>
<path d="M168.021 68.5465C168.021 71.2201 166.818 72.9783 164.516 73.815L167.828 84.2767C167.971 84.7548 167.684 84.9938 167.155 84.9938H162.164C161.967 85.0079 161.771 84.9572 161.619 84.8525C161.466 84.7479 161.369 84.5976 161.348 84.4339L158.134 74.2963H154.822V84.3616C154.83 84.4458 154.815 84.5303 154.78 84.6093C154.744 84.6884 154.689 84.7602 154.617 84.8199C154.545 84.8796 154.459 84.9257 154.364 84.9552C154.269 84.9847 154.167 84.9968 154.066 84.9907H149.076C148.975 84.9968 148.873 84.9847 148.778 84.9552C148.683 84.9257 148.597 84.8796 148.525 84.8199C148.453 84.7602 148.398 84.6884 148.362 84.6093C148.327 84.5303 148.312 84.4458 148.32 84.3616V53.6938C148.312 53.6097 148.327 53.5252 148.362 53.4461C148.398 53.367 148.453 53.2952 148.525 53.2355C148.597 53.1758 148.683 53.1297 148.778 53.1002C148.873 53.0708 148.975 53.0587 149.076 53.0648H161.121C165.631 53.0648 168.032 55.0621 168.032 58.8146L168.021 68.5465ZM159.575 69.0246C160.822 69.0246 161.495 68.4678 161.495 67.4298V59.9218C161.495 58.8806 160.822 58.3239 159.575 58.3239H154.822V69.0183L159.575 69.0246Z" fill="#F36E23"/>
<path d="M192.3 84.9905C192.113 84.9914 191.932 84.9347 191.793 84.8313C191.653 84.7279 191.564 84.5851 191.544 84.4306L190.187 78.6116H181.631L180.334 84.44C180.314 84.5946 180.225 84.7373 180.085 84.8407C179.946 84.9441 179.765 85.0008 179.578 84.9999H174.448C173.919 84.9999 173.692 84.7608 173.824 84.3205L181.79 53.6213C181.811 53.4576 181.908 53.3073 182.061 53.2027C182.213 53.098 182.409 53.0473 182.606 53.0614H189.276C189.473 53.0473 189.668 53.098 189.821 53.2027C189.974 53.3073 190.071 53.4576 190.092 53.6213L198.058 84.3205C198.152 84.7608 197.96 84.9999 197.385 84.9999L192.3 84.9905ZM185.915 60.0536L182.845 73.9846H188.988L185.915 60.0536Z" fill="#F36E23"/>
<path d="M217.925 53.6938C217.918 53.6097 217.932 53.5252 217.968 53.4461C218.003 53.367 218.059 53.2952 218.13 53.2355C218.202 53.1758 218.288 53.1297 218.383 53.1002C218.479 53.0708 218.58 53.0587 218.681 53.0648H223.623C224.201 53.0648 224.439 53.307 224.439 53.6938V84.3521C224.439 84.7516 224.201 84.9812 223.623 84.9812H218.681C218.58 84.9873 218.479 84.9752 218.383 84.9457C218.288 84.9163 218.202 84.8702 218.13 84.8105C218.059 84.7508 218.003 84.679 217.968 84.5999C217.932 84.5208 217.918 84.4363 217.925 84.3521V71.6573H211.782V84.3521C211.789 84.4363 211.774 84.5208 211.739 84.5999C211.704 84.679 211.648 84.7508 211.576 84.8105C211.505 84.8702 211.418 84.9163 211.323 84.9457C211.228 84.9752 211.127 84.9873 211.025 84.9812H206.084C205.51 84.9812 205.268 84.7422 205.268 84.3521V53.6938C205.268 53.2944 205.51 53.0648 206.084 53.0648H211.025C211.127 53.0587 211.228 53.0708 211.323 53.1002C211.418 53.1297 211.505 53.1758 211.576 53.2355C211.648 53.2952 211.704 53.367 211.739 53.4461C211.774 53.5252 211.789 53.6097 211.782 53.6938V66.3887H217.925V53.6938Z" fill="#F36E23"/>
<path d="M249.206 84.9907C249.019 84.9916 248.839 84.9349 248.699 84.8315C248.559 84.7281 248.471 84.5854 248.45 84.4308L247.097 78.6118H238.552L237.259 84.4402C237.239 84.5948 237.15 84.7376 237.011 84.841C236.871 84.9443 236.69 85.001 236.503 85.0001H231.369C230.84 85.0001 230.613 84.7611 230.745 84.3207L238.711 53.6215C238.732 53.4584 238.829 53.3087 238.981 53.2041C239.133 53.0995 239.328 53.0484 239.524 53.0616H246.197C246.393 53.0484 246.588 53.0995 246.74 53.2041C246.892 53.3087 246.989 53.4584 247.01 53.6215L254.976 84.3207C255.074 84.7611 254.881 85.0001 254.303 85.0001L249.206 84.9907ZM242.825 60.0539L239.755 73.9849H245.902L242.825 60.0539Z" fill="#F36E23"/>
<path d="M78.017 0C80.9041 -2.52833e-08 83.7629 0.568689 86.4302 1.67359C89.0975 2.77849 91.521 4.39796 93.5624 6.43952C95.6037 8.48108 97.2229 10.9047 98.3275 13.5721C99.4321 16.2395 100 19.0983 100 21.9853V78.0147C100 80.9017 99.4321 83.7605 98.3275 86.4279C97.2229 89.0953 95.6037 91.5189 93.5624 93.5605C91.521 95.6021 89.0975 97.2215 86.4302 98.3264C83.7629 99.4313 80.9041 100 78.017 100H21.983C19.0959 100 16.2371 99.4313 13.5698 98.3264C10.9025 97.2215 8.47899 95.6021 6.43764 93.5605C4.39629 91.5189 2.7771 89.0953 1.67252 86.4279C0.56794 83.7605 -0.0003819 80.9017 1.92538e-07 78.0147V21.9853C-0.0003819 19.0983 0.56794 16.2395 1.67252 13.5721C2.7771 10.9047 4.39629 8.48108 6.43764 6.43952C8.47899 4.39796 10.9025 2.77849 13.5698 1.67359C16.2371 0.568689 19.0959 -2.52833e-08 21.983 0H78.017Z" fill="#ED7225"/>
<path d="M27.8691 59.2588L49.9927 15L65.3804 45.7822C64.6907 46.3638 63.959 46.9386 63.1851 47.5067C61.0252 44.3582 58.0742 42.0598 54.7375 40.9272C51.4009 39.7946 47.8425 39.8836 44.5514 41.1817C41.2603 42.4799 38.3981 44.9236 36.3581 48.177C34.3181 51.4304 33.2006 55.3337 33.159 59.3504C32.3156 59.4251 31.4986 59.4658 30.7257 59.4658C29.7705 59.4739 28.816 59.4047 27.8691 59.2588V59.2588ZM71.6048 58.2404C70.0796 59.4047 68.4485 60.5351 66.741 61.618C66.4074 65.2971 65.1722 68.79 63.1805 71.6868C61.1887 74.5836 58.523 76.7641 55.4961 77.9726C52.4693 79.181 49.2068 79.3672 46.0915 78.5093C42.9763 77.6514 40.1375 75.785 37.9082 73.1291C35.0369 73.673 32.1335 73.959 29.2239 73.9845V73.9845C25.8178 73.9845 23.1699 73.5229 21.1157 72.7795L15 85H42.3605C43.9091 85.0011 45.4306 84.5311 46.772 83.6373C48.1133 82.7434 49.2272 81.4572 50.0015 79.9081C50.7758 81.4572 51.8896 82.7434 53.231 83.6373C54.5723 84.5311 56.0939 85.0011 57.6424 85H85L71.6048 58.2404ZM64.0873 33.9758C69.1333 33.8468 72.654 35.0723 73.4739 37.7099C75.149 43.0631 64.9954 52.2048 50.7949 58.125C36.5945 64.0452 23.7283 64.5034 22.0561 59.1434C21.2068 56.4277 23.408 52.7276 27.6399 48.9596C20.14 54.7304 15.9669 60.8644 17.354 65.274C19.5846 72.4027 35.4983 72.3178 52.8962 65.0635C70.2941 57.8093 82.5843 46.1488 80.3537 39.0202C79.0107 34.7124 72.6981 33.0355 64.0873 33.9724V33.9758ZM49.7958 54.9137C53.3746 53.4338 56.8497 51.6384 60.1904 49.5434C58.4468 47.1764 56.1266 45.4708 53.5319 44.6487C50.9372 43.8265 48.1882 43.926 45.6432 44.9341C43.0981 45.9423 40.8748 47.8123 39.263 50.3007C37.6511 52.7891 36.7253 55.7806 36.6063 58.8854C41.1022 58.048 45.5188 56.7169 49.7958 54.9103V54.9137ZM53.8895 68.2748C50.0741 69.8729 46.1717 71.1792 42.2077 72.1854C43.9489 73.6215 45.9625 74.5551 48.0801 74.908C50.1976 75.2609 52.3576 75.023 54.3792 74.214C56.4009 73.405 58.2254 72.0486 59.7001 70.2582C61.1749 68.4678 62.257 66.2954 62.8559 63.9229C59.9337 65.549 56.9409 67.0005 53.8895 68.2714V68.2748Z" fill="#FAF08E"/>
</svg>
