<svg width="100" height="100" viewBox="0 0 100 100" fill="none" xmlns="http://www.w3.org/2000/svg">
<path d="M78.017 0C80.9041 -2.52833e-08 83.7629 0.568689 86.4302 1.67359C89.0975 2.77849 91.521 4.39796 93.5624 6.43952C95.6037 8.48108 97.2229 10.9047 98.3275 13.5721C99.4321 16.2395 100 19.0983 100 21.9853V78.0147C100 80.9017 99.4321 83.7605 98.3275 86.4279C97.2229 89.0953 95.6037 91.5189 93.5624 93.5605C91.521 95.6021 89.0975 97.2215 86.4302 98.3264C83.7629 99.4313 80.9041 100 78.017 100H21.983C19.0959 100 16.2371 99.4313 13.5698 98.3264C10.9025 97.2215 8.47899 95.6021 6.43764 93.5605C4.39629 91.5189 2.7771 89.0953 1.67252 86.4279C0.56794 83.7605 -0.0003819 80.9017 1.92538e-07 78.0147V21.9853C-0.0003819 19.0983 0.56794 16.2395 1.67252 13.5721C2.7771 10.9047 4.39629 8.48108 6.43764 6.43952C8.47899 4.39796 10.9025 2.77849 13.5698 1.67359C16.2371 0.568689 19.0959 -2.52833e-08 21.983 0H78.017Z" fill="#ED7225"/>
<path d="M27.8691 59.2588L49.9927 15L65.3804 45.7822C64.6907 46.3638 63.959 46.9386 63.1851 47.5067C61.0252 44.3582 58.0742 42.0598 54.7375 40.9272C51.4009 39.7946 47.8425 39.8836 44.5514 41.1817C41.2603 42.4799 38.3981 44.9236 36.3581 48.177C34.3181 51.4304 33.2006 55.3337 33.159 59.3504C32.3156 59.4251 31.4986 59.4658 30.7257 59.4658C29.7705 59.4739 28.816 59.4047 27.8691 59.2588ZM71.6048 58.2404C70.0796 59.4047 68.4485 60.5351 66.741 61.618C66.4074 65.2971 65.1722 68.79 63.1805 71.6868C61.1887 74.5836 58.523 76.7641 55.4961 77.9726C52.4693 79.181 49.2068 79.3672 46.0915 78.5093C42.9763 77.6514 40.1375 75.785 37.9082 73.1291C35.0369 73.673 32.1335 73.959 29.2239 73.9845C25.8178 73.9845 23.1699 73.5229 21.1157 72.7794L15 85H42.3605C43.9091 85.0012 45.4306 84.5311 46.772 83.6373C48.1133 82.7434 49.2272 81.4572 50.0015 79.9081C50.7758 81.4572 51.8896 82.7434 53.231 83.6373C54.5723 84.5311 56.0939 85.0012 57.6424 85H85L71.6048 58.2404ZM64.0873 33.9758C69.1333 33.8468 72.654 35.0723 73.4739 37.7099C75.149 43.0631 64.9954 52.2048 50.7949 58.125C36.5945 64.0452 23.7283 64.5034 22.0561 59.1434C21.2068 56.4277 23.408 52.7276 27.6399 48.9596C20.14 54.7304 15.9669 60.8644 17.354 65.274C19.5846 72.4027 35.4983 72.3178 52.8962 65.0635C70.2941 57.8093 82.5843 46.1488 80.3537 39.0202C79.0107 34.7124 72.6981 33.0355 64.0873 33.9724V33.9758ZM49.7958 54.9137C53.3746 53.4338 56.8497 51.6384 60.1904 49.5434C58.4468 47.1764 56.1266 45.4708 53.5319 44.6487C50.9372 43.8265 48.1882 43.926 45.6432 44.9341C43.0981 45.9423 40.8748 47.8123 39.263 50.3007C37.6511 52.7891 36.7253 55.7806 36.6063 58.8854C41.1022 58.048 45.5188 56.7169 49.7958 54.9103V54.9137ZM53.8895 68.2748C50.0741 69.8729 46.1717 71.1792 42.2077 72.1854C43.9489 73.6215 45.9625 74.5551 48.0801 74.908C50.1976 75.2609 52.3576 75.023 54.3792 74.214C56.4009 73.405 58.2254 72.0486 59.7001 70.2582C61.1749 68.4678 62.257 66.2954 62.8559 63.9229C59.9337 65.549 56.9409 67.0005 53.8895 68.2714V68.2748Z" fill="#FAF08E"/>
</svg>
