<svg width="404" height="195" viewBox="0 0 404 195" fill="none" xmlns="http://www.w3.org/2000/svg">
<rect width="404" height="195" fill="#FAF08E"/>
<path d="M151.8 44C154.901 44 157.972 44.6109 160.837 45.7977C163.702 46.9845 166.305 48.7241 168.498 50.917C170.69 53.11 172.43 55.7134 173.616 58.5785C174.802 61.4437 175.413 64.5145 175.412 67.6156V127.8C175.413 130.901 174.802 133.972 173.616 136.837C172.43 139.702 170.69 142.306 168.498 144.499C166.305 146.692 163.702 148.431 160.837 149.618C157.972 150.805 154.901 151.416 151.8 151.416H91.6125C88.5114 151.416 85.4407 150.805 82.5757 149.618C79.7107 148.431 77.1075 146.692 74.9148 144.499C72.7222 142.306 70.9829 139.702 69.7965 136.837C68.61 133.972 67.9996 130.901 68 127.8V67.6156C67.9996 64.5145 68.61 61.4437 69.7965 58.5785C70.9829 55.7134 72.7222 53.11 74.9148 50.917C77.1075 48.7241 79.7107 46.9845 82.5757 45.7977C85.4407 44.6109 88.5114 44 91.6125 44H151.8Z" fill="#ED7225"/>
<path d="M98.181 106.228L121.706 65.4844L138.068 93.8219C137.335 94.3573 136.557 94.8865 135.734 95.4094C133.437 92.511 130.299 90.3951 126.751 89.3525C123.203 88.3098 119.42 88.3917 115.92 89.5868C112.42 90.7818 109.377 93.0315 107.208 96.0265C105.038 99.0214 103.85 102.615 103.806 106.312C102.909 106.381 102.04 106.419 101.218 106.419C100.203 106.426 99.1878 106.362 98.181 106.228ZM144.687 105.291C143.065 106.362 141.331 107.403 139.515 108.4C139.161 111.787 137.847 115.002 135.729 117.669C133.611 120.336 130.777 122.343 127.558 123.456C124.339 124.568 120.87 124.74 117.558 123.95C114.245 123.16 111.226 121.442 108.856 118.997C105.803 119.498 102.715 119.761 99.6216 119.784C95.9997 119.784 93.1841 119.359 90.9997 118.675L84.4966 129.925H113.59C115.237 129.926 116.855 129.493 118.281 128.67C119.708 127.848 120.892 126.664 121.715 125.237C122.539 126.664 123.723 127.848 125.149 128.67C126.576 129.493 128.194 129.926 129.84 129.925H158.931L144.687 105.291ZM136.693 82.9531C142.059 82.8344 145.803 83.9625 146.675 86.3906C148.456 91.3188 137.659 99.7344 122.559 105.184C107.459 110.634 93.7778 111.056 91.9997 106.122C91.0966 103.622 93.4372 100.216 97.9372 96.7469C89.9622 102.059 85.5247 107.706 86.9997 111.766C89.3716 118.328 106.293 118.25 124.793 111.572C143.293 104.894 156.362 94.1594 153.99 87.5969C152.562 83.6312 145.85 82.0875 136.693 82.95V82.9531ZM121.497 102.228C125.302 100.866 128.997 99.213 132.55 97.2844C130.696 95.1054 128.228 93.5352 125.469 92.7783C122.71 92.0215 119.787 92.1131 117.081 93.0411C114.375 93.9692 112.011 95.6907 110.297 97.9815C108.583 100.272 107.598 103.026 107.472 105.884C112.252 105.114 116.949 103.888 121.497 102.225V102.228ZM125.85 114.528C121.793 115.999 117.643 117.202 113.428 118.128C115.279 119.45 117.42 120.31 119.672 120.634C121.924 120.959 124.221 120.74 126.37 119.996C128.52 119.251 130.46 118.002 132.028 116.354C133.597 114.706 134.747 112.706 135.384 110.522C132.277 112.019 129.094 113.355 125.85 114.525V114.528Z" fill="#FAF08E"/>
<path d="M212.159 86.4531C212.004 86.454 211.855 86.3977 211.739 86.2949C211.624 86.1922 211.551 86.0504 211.534 85.8968L210.415 80.0968H203.355L202.284 85.8874C202.267 86.041 202.193 86.1828 202.078 86.2855C201.962 86.3883 201.813 86.4446 201.659 86.4437H197.406C196.968 86.4437 196.781 86.2062 196.89 85.7687L203.474 55.2687C203.492 55.1067 203.572 54.9579 203.697 54.854C203.823 54.7501 203.984 54.6993 204.146 54.7125H209.677C209.84 54.6993 210.001 54.7501 210.126 54.854C210.252 54.9579 210.332 55.1067 210.349 55.2687L216.934 85.7687C217.015 86.2062 216.855 86.4437 216.38 86.4437L212.159 86.4531ZM206.884 61.6594L204.346 75.5031H209.424L206.884 61.6594Z" fill="#F36E23"/>
<path d="M231.831 54.7224C235.562 54.7224 237.544 56.7068 237.544 60.4349V64.638C237.553 64.7224 237.543 64.8078 237.515 64.888C237.487 64.9681 237.441 65.0409 237.381 65.1009C237.321 65.1609 237.249 65.2067 237.168 65.2347C237.088 65.2628 237.003 65.2725 236.919 65.263H232.794C232.71 65.2691 232.626 65.2571 232.547 65.2278C232.469 65.1985 232.397 65.1527 232.338 65.0934C232.279 65.0341 232.233 64.9628 232.204 64.8842C232.175 64.8056 232.163 64.7217 232.169 64.638V61.5443C232.169 60.513 231.653 59.9568 230.581 59.9568H228.678C227.687 59.9568 227.09 60.513 227.09 61.5443V67.0193L236.531 70.113C236.842 70.2064 237.113 70.4017 237.3 70.6675C237.487 70.9333 237.58 71.2541 237.562 71.5787V80.7412C237.562 84.4693 235.581 86.4537 231.85 86.4537H227.409C223.722 86.4537 221.697 84.4693 221.697 80.7412V76.5756C221.687 76.4912 221.697 76.4058 221.725 76.3256C221.753 76.2455 221.799 76.1727 221.859 76.1127C221.919 76.0527 221.992 76.0069 222.072 75.9789C222.152 75.9508 222.237 75.9411 222.322 75.9506H226.447C226.532 75.9379 226.618 75.9453 226.7 75.9723C226.782 75.9992 226.856 76.0449 226.917 76.1056C226.977 76.1664 227.023 76.2406 227.05 76.3222C227.077 76.4038 227.084 76.4906 227.072 76.5756V79.6318C227.072 80.7006 227.669 81.2162 228.659 81.2162H230.562C231.594 81.2162 232.15 80.7006 232.15 79.6318V74.3568L222.75 71.2631C222.427 71.1831 222.143 70.9921 221.947 70.7235C221.751 70.455 221.656 70.126 221.678 69.7943V60.4349C221.678 56.7068 223.703 54.7224 227.39 54.7224H231.831Z" fill="#F36E23"/>
<path d="M257.534 54.7223C257.618 54.7128 257.704 54.7225 257.784 54.7506C257.864 54.7786 257.937 54.8244 257.997 54.8844C258.057 54.9445 258.103 55.0172 258.131 55.0974C258.159 55.1775 258.168 55.2629 258.159 55.3473V59.3129C258.168 59.3973 258.159 59.4827 258.131 59.5628C258.103 59.6429 258.057 59.7157 257.997 59.7757C257.937 59.8358 257.864 59.8815 257.784 59.9096C257.704 59.9377 257.618 59.9473 257.534 59.9379H252.934V85.8004C252.934 86.2348 252.734 86.4254 252.309 86.4254H248.184C248.1 86.4343 248.015 86.4242 247.935 86.3959C247.855 86.3676 247.782 86.3218 247.723 86.2619C247.663 86.202 247.617 86.1295 247.589 86.0497C247.56 85.9698 247.55 85.8847 247.559 85.8004V59.9566H242.959C242.875 59.9627 242.791 59.9507 242.713 59.9214C242.634 59.8921 242.563 59.8463 242.504 59.787C242.444 59.7277 242.399 59.6564 242.369 59.5778C242.34 59.4992 242.328 59.4153 242.334 59.3316V55.3566C242.328 55.273 242.34 55.1891 242.369 55.1105C242.399 55.0319 242.444 54.9606 242.504 54.9013C242.563 54.842 242.634 54.7961 242.713 54.7669C242.791 54.7376 242.875 54.7256 242.959 54.7316L257.534 54.7223Z" fill="#F36E23"/>
<path d="M280.022 70.1127C280.022 72.769 279.031 74.5127 277.125 75.3471L279.862 85.7377C279.981 86.2159 279.743 86.4534 279.309 86.4534H275.184C275.021 86.4674 274.859 86.417 274.733 86.313C274.607 86.209 274.526 86.0597 274.509 85.8971L271.865 75.8221H269.131V85.8221C269.137 85.9057 269.125 85.9897 269.096 86.0683C269.066 86.1468 269.021 86.2182 268.961 86.2775C268.902 86.3368 268.831 86.3826 268.752 86.4119C268.674 86.4411 268.59 86.4532 268.506 86.4471H264.365C264.282 86.4532 264.198 86.4411 264.119 86.4119C264.041 86.3826 263.969 86.3368 263.91 86.2775C263.851 86.2182 263.805 86.1468 263.776 86.0683C263.746 85.9897 263.734 85.9057 263.74 85.8221V55.3565C263.734 55.2729 263.746 55.1889 263.776 55.1104C263.805 55.0318 263.851 54.9604 263.91 54.9011C263.969 54.8419 264.041 54.796 264.119 54.7667C264.198 54.7375 264.282 54.7255 264.365 54.7315H274.318C278.047 54.7315 280.031 56.7159 280.031 60.444L280.022 70.1127ZM273.04 70.5878C274.072 70.5878 274.628 70.0315 274.628 69.0002V61.544C274.628 60.5128 274.072 59.9565 273.04 59.9565H269.115V70.5815L273.04 70.5878Z" fill="#F36E23"/>
<path d="M285.575 60.4349C285.575 56.7068 287.556 54.7224 291.284 54.7224H295.728C299.456 54.7224 301.44 56.7068 301.44 60.4349V80.7474C301.44 84.4755 299.456 86.4599 295.728 86.4599H291.284C287.556 86.4599 285.575 84.4755 285.575 80.7474V60.4349ZM294.737 81.3474C295.768 81.3474 296.322 80.8318 296.322 79.763V61.4255C296.322 60.3943 295.768 59.838 294.737 59.838H292.434C291.403 59.838 290.85 60.3943 290.85 61.4255V79.7505C290.85 80.8193 291.403 81.3349 292.434 81.3349L294.737 81.3474Z" fill="#F36E23"/>
<path d="M197.247 98.2225C197.247 94.4944 199.231 92.51 202.959 92.51H208.193C211.881 92.51 213.906 94.4944 213.906 98.2225V102.348C213.912 102.431 213.9 102.515 213.871 102.594C213.841 102.672 213.796 102.744 213.736 102.803C213.677 102.862 213.606 102.908 213.527 102.937C213.449 102.967 213.365 102.979 213.281 102.973H209.303C209.218 102.982 209.133 102.972 209.053 102.944C208.973 102.916 208.9 102.87 208.84 102.81C208.78 102.75 208.734 102.678 208.706 102.597C208.678 102.517 208.668 102.432 208.678 102.348V99.335C208.678 98.3006 208.125 97.7475 207.093 97.7475H204.237C203.165 97.7475 202.65 98.3006 202.65 99.335V117.419C202.65 118.491 203.206 119.007 204.237 119.007H207.093C208.125 119.007 208.678 118.491 208.678 117.419V112.107H206.615C206.531 112.116 206.446 112.107 206.365 112.079C206.285 112.051 206.213 112.005 206.152 111.945C206.092 111.885 206.047 111.812 206.019 111.732C205.991 111.652 205.981 111.566 205.99 111.482V107.51C205.978 107.425 205.986 107.339 206.013 107.257C206.041 107.176 206.086 107.102 206.147 107.042C206.208 106.981 206.281 106.935 206.363 106.908C206.444 106.881 206.53 106.873 206.615 106.885H213.272C213.356 106.876 213.441 106.885 213.521 106.913C213.602 106.941 213.674 106.987 213.734 107.047C213.794 107.107 213.84 107.18 213.868 107.26C213.896 107.34 213.906 107.426 213.897 107.51V118.535C213.897 122.263 211.872 124.244 208.184 124.244H202.959C199.231 124.244 197.247 122.263 197.247 118.535V98.2225Z" fill="#F36E23"/>
<path d="M236.553 107.909C236.553 110.566 235.559 112.312 233.656 113.144L236.393 123.537C236.512 124.012 236.274 124.25 235.837 124.25H231.712C231.549 124.264 231.387 124.214 231.261 124.11C231.135 124.006 231.054 123.856 231.037 123.694L228.381 113.622H225.643V123.622C225.649 123.705 225.637 123.789 225.608 123.868C225.579 123.947 225.533 124.018 225.473 124.077C225.414 124.137 225.343 124.182 225.264 124.212C225.186 124.241 225.102 124.253 225.018 124.247H220.893C220.809 124.253 220.726 124.241 220.647 124.212C220.568 124.182 220.497 124.137 220.438 124.077C220.378 124.018 220.333 123.947 220.303 123.868C220.274 123.789 220.262 123.705 220.268 123.622V93.1531C220.262 93.0695 220.274 92.9855 220.303 92.907C220.333 92.8284 220.378 92.757 220.438 92.6978C220.497 92.6385 220.568 92.5926 220.647 92.5634C220.726 92.5341 220.809 92.5221 220.893 92.5281H230.849C234.578 92.5281 236.562 94.5125 236.562 98.2406L236.553 107.909ZM229.571 108.384C230.603 108.384 231.159 107.831 231.159 106.8V99.3406C231.159 98.3063 230.603 97.7531 229.571 97.7531H225.643V108.378L229.571 108.384Z" fill="#F36E23"/>
<path d="M256.621 124.247C256.467 124.248 256.317 124.192 256.202 124.089C256.086 123.986 256.013 123.844 255.996 123.691L254.874 117.91H247.802L246.731 123.7C246.714 123.854 246.64 123.996 246.525 124.098C246.409 124.201 246.26 124.257 246.106 124.256H241.865C241.428 124.256 241.24 124.019 241.349 123.581L247.934 93.0815C247.951 92.9189 248.032 92.7696 248.158 92.6656C248.284 92.5616 248.446 92.5112 248.609 92.5252H254.121C254.284 92.5112 254.446 92.5616 254.572 92.6656C254.698 92.7696 254.779 92.9189 254.796 93.0815L261.381 123.581C261.459 124.019 261.299 124.256 260.824 124.256L256.621 124.247ZM251.343 99.4721L248.806 113.313H253.884L251.343 99.4721Z" fill="#F36E23"/>
<path d="M277.803 93.1531C277.797 93.0695 277.809 92.9855 277.838 92.907C277.867 92.8284 277.913 92.757 277.972 92.6978C278.032 92.6385 278.103 92.5926 278.182 92.5634C278.26 92.5341 278.344 92.5221 278.428 92.5281H282.512C282.99 92.5281 283.187 92.7688 283.187 93.1531V123.612C283.187 124.009 282.99 124.237 282.512 124.237H278.428C278.344 124.244 278.26 124.231 278.182 124.202C278.103 124.173 278.032 124.127 277.972 124.068C277.913 124.009 277.867 123.937 277.838 123.859C277.809 123.78 277.797 123.696 277.803 123.612V111H272.725V123.612C272.731 123.696 272.719 123.78 272.689 123.859C272.66 123.937 272.614 124.009 272.555 124.068C272.496 124.127 272.424 124.173 272.346 124.202C272.267 124.231 272.183 124.244 272.1 124.237H268.015C267.54 124.237 267.34 124 267.34 123.612V93.1531C267.34 92.7563 267.54 92.5281 268.015 92.5281H272.1C272.183 92.5221 272.267 92.5341 272.346 92.5634C272.424 92.5926 272.496 92.6385 272.555 92.6978C272.614 92.757 272.66 92.8284 272.689 92.907C272.719 92.9855 272.731 93.0695 272.725 93.1531V105.766H277.803V93.1531Z" fill="#F36E23"/>
<path d="M303.659 124.247C303.505 124.248 303.355 124.191 303.24 124.089C303.124 123.986 303.051 123.844 303.034 123.691L301.915 117.909H294.853L293.784 123.7C293.767 123.854 293.694 123.995 293.578 124.098C293.463 124.201 293.314 124.257 293.159 124.256H288.915C288.478 124.256 288.29 124.019 288.4 123.581L294.984 93.0812C295.001 92.9192 295.081 92.7704 295.207 92.6665C295.332 92.5626 295.494 92.5118 295.656 92.525H301.172C301.334 92.5118 301.495 92.5626 301.621 92.6665C301.746 92.7704 301.826 92.9192 301.843 93.0812L308.428 123.581C308.509 124.019 308.35 124.256 307.872 124.256L303.659 124.247ZM298.384 99.4719L295.847 113.312H300.928L298.384 99.4719Z" fill="#F36E23"/>
<path d="M201.021 138.656H198.428L197.803 140.481H196.837L199.259 133.728H200.224L202.643 140.481H201.681L201.021 138.656ZM200.731 137.828L199.728 135.016L198.724 137.828H200.731Z" fill="#B8912E"/>
<path d="M204.762 140.485C204.421 140.416 204.088 140.311 203.769 140.172L203.897 139.197C204.247 139.364 204.611 139.5 204.984 139.603C205.376 139.717 205.782 139.775 206.19 139.775C206.556 139.796 206.919 139.712 207.237 139.532C207.359 139.452 207.457 139.342 207.522 139.212C207.587 139.083 207.617 138.939 207.609 138.794C207.621 138.57 207.554 138.349 207.419 138.169C207.273 137.988 207.085 137.845 206.872 137.753C206.544 137.609 206.207 137.488 205.862 137.391C205.487 137.287 205.121 137.148 204.772 136.975C204.492 136.835 204.252 136.627 204.075 136.369C203.888 136.079 203.795 135.739 203.809 135.394C203.801 135.14 203.854 134.889 203.963 134.659C204.071 134.43 204.233 134.23 204.434 134.075C204.953 133.711 205.58 133.533 206.212 133.572C206.607 133.57 207 133.615 207.384 133.707C207.717 133.779 208.041 133.884 208.353 134.019L208.256 134.994C207.93 134.797 207.58 134.641 207.216 134.532C206.877 134.434 206.527 134.384 206.175 134.385C205.827 134.367 205.482 134.448 205.178 134.619C205.057 134.692 204.958 134.798 204.892 134.923C204.827 135.049 204.797 135.19 204.806 135.332C204.798 135.526 204.858 135.717 204.975 135.872C205.107 136.028 205.274 136.152 205.462 136.232C205.749 136.356 206.045 136.461 206.347 136.544C206.962 136.704 207.54 136.984 208.047 137.369C208.232 137.545 208.378 137.759 208.474 137.996C208.571 138.233 208.615 138.487 208.605 138.743C208.595 138.999 208.531 139.249 208.416 139.478C208.302 139.707 208.139 139.908 207.941 140.069C207.497 140.4 206.841 140.566 205.972 140.566C205.567 140.581 205.162 140.554 204.762 140.485Z" fill="#B8912E"/>
<path d="M211.6 134.56H209.634V133.728H214.484V134.56H212.516V140.497H211.6V134.56Z" fill="#B8912E"/>
<path d="M215.978 133.728H218.165C218.778 133.692 219.385 133.871 219.881 134.235C220.099 134.428 220.27 134.671 220.378 134.942C220.487 135.213 220.53 135.506 220.506 135.797C220.53 136.197 220.429 136.594 220.218 136.934C220.007 137.274 219.696 137.541 219.328 137.697L220.843 140.51H219.724L218.353 137.875H216.946V140.51H215.981L215.978 133.728ZM218.165 137.028C218.536 137.059 218.905 136.947 219.196 136.716C219.424 136.466 219.549 136.14 219.549 135.802C219.549 135.464 219.424 135.138 219.196 134.888C218.902 134.657 218.532 134.546 218.159 134.575H216.943V137.053L218.165 137.028Z" fill="#B8912E"/>
<path d="M223.594 140.182C223.089 139.894 222.679 139.466 222.412 138.951C222.133 138.375 221.987 137.744 221.987 137.104C221.987 136.464 222.133 135.832 222.412 135.257C222.68 134.743 223.09 134.316 223.594 134.029C224.122 133.745 224.712 133.596 225.312 133.596C225.912 133.596 226.503 133.745 227.031 134.029C227.533 134.318 227.943 134.744 228.212 135.257C228.49 135.833 228.634 136.464 228.634 137.104C228.634 137.743 228.49 138.375 228.212 138.951C227.944 139.465 227.534 139.892 227.031 140.182C226.503 140.466 225.912 140.614 225.312 140.614C224.712 140.614 224.122 140.466 223.594 140.182ZM226.597 139.385C226.949 139.158 227.227 138.832 227.394 138.447C227.748 137.586 227.748 136.619 227.394 135.757C227.227 135.372 226.949 135.046 226.597 134.819C226.207 134.594 225.764 134.476 225.314 134.476C224.864 134.476 224.421 134.594 224.031 134.819C223.679 135.045 223.402 135.372 223.237 135.757C222.883 136.619 222.883 137.586 223.237 138.447C223.402 138.832 223.679 139.159 224.031 139.385C224.421 139.61 224.864 139.729 225.314 139.729C225.764 139.729 226.207 139.61 226.597 139.385Z" fill="#B8912E"/>
<path d="M230.377 133.728H231.293V139.666H234.39V140.497H230.377V133.728Z" fill="#B8912E"/>
<path d="M236.777 140.181C236.273 139.893 235.863 139.466 235.596 138.95C235.316 138.375 235.171 137.743 235.171 137.103C235.171 136.463 235.316 135.832 235.596 135.256C235.864 134.742 236.274 134.316 236.777 134.028C237.305 133.744 237.896 133.595 238.496 133.595C239.096 133.595 239.686 133.744 240.215 134.028C240.718 134.316 241.128 134.742 241.396 135.256C241.676 135.832 241.821 136.463 241.821 137.103C241.821 137.743 241.676 138.375 241.396 138.95C241.129 139.466 240.719 139.893 240.215 140.181C239.686 140.466 239.096 140.615 238.496 140.615C237.896 140.615 237.305 140.466 236.777 140.181ZM239.78 139.385C240.133 139.158 240.41 138.832 240.577 138.447C240.927 137.584 240.927 136.619 240.577 135.756C240.41 135.372 240.133 135.046 239.78 134.819C239.39 134.594 238.948 134.475 238.498 134.475C238.047 134.475 237.605 134.594 237.215 134.819C236.862 135.046 236.585 135.372 236.418 135.756C236.064 136.618 236.064 137.585 236.418 138.447C236.585 138.832 236.862 139.158 237.215 139.385C237.605 139.61 238.047 139.728 238.498 139.728C238.948 139.728 239.39 139.61 239.78 139.385Z" fill="#B8912E"/>
<path d="M244.787 140.181C244.283 139.89 243.871 139.462 243.599 138.947C243.3 138.376 243.151 137.738 243.165 137.094C243.151 136.451 243.306 135.817 243.615 135.253C243.906 134.734 244.34 134.309 244.865 134.028C245.419 133.732 246.04 133.582 246.668 133.594C247.007 133.593 247.346 133.629 247.677 133.7C247.983 133.763 248.281 133.856 248.568 133.978L248.48 134.781C247.913 134.553 247.308 134.432 246.696 134.422C246.205 134.405 245.718 134.528 245.293 134.775C244.924 135.003 244.633 135.336 244.456 135.731C244.265 136.163 244.172 136.631 244.181 137.103C244.143 137.812 244.376 138.509 244.831 139.053C245.077 139.307 245.377 139.504 245.708 139.631C246.038 139.757 246.393 139.81 246.746 139.785C246.94 139.785 247.133 139.77 247.324 139.741C247.512 139.717 247.697 139.671 247.874 139.603V137.925H246.812V137.094H248.79V140.097C248.47 140.266 248.128 140.391 247.774 140.469C247.352 140.566 246.92 140.613 246.487 140.61C245.892 140.621 245.305 140.474 244.787 140.181Z" fill="#B8912E"/>
<path d="M250.615 133.728H254.731V134.56H251.553V136.535H254.096V137.366H251.553V139.65H254.84V140.481H250.615V133.728Z" fill="#B8912E"/>
<path d="M256.553 133.728H258.74C259.354 133.692 259.961 133.871 260.456 134.235C260.675 134.428 260.845 134.671 260.954 134.942C261.062 135.213 261.106 135.506 261.081 135.797C261.105 136.197 261.004 136.594 260.793 136.934C260.582 137.274 260.271 137.541 259.903 137.697L261.418 140.51H260.3L258.931 137.875H257.521V140.51H256.553V133.728ZM258.74 137.028C259.111 137.059 259.48 136.947 259.771 136.716C259.999 136.466 260.125 136.14 260.125 135.802C260.125 135.464 259.999 135.138 259.771 134.888C259.477 134.657 259.107 134.546 258.734 134.575H257.518V137.053L258.74 137.028Z" fill="#B8912E"/>
<path d="M263.649 140.485C263.308 140.417 262.975 140.312 262.656 140.173L262.781 139.198C263.132 139.364 263.497 139.5 263.871 139.604C264.263 139.717 264.67 139.775 265.078 139.776C265.442 139.798 265.805 139.713 266.121 139.532C266.243 139.453 266.341 139.343 266.407 139.213C266.472 139.084 266.502 138.939 266.493 138.794C266.505 138.571 266.438 138.35 266.306 138.169C266.159 137.988 265.97 137.845 265.756 137.754C265.429 137.61 265.093 137.489 264.75 137.391C264.374 137.287 264.009 137.148 263.659 136.976C263.378 136.836 263.137 136.627 262.959 136.369C262.773 136.079 262.681 135.739 262.693 135.394C262.686 135.141 262.739 134.889 262.848 134.66C262.956 134.431 263.118 134.231 263.318 134.076C263.838 133.712 264.466 133.534 265.1 133.572C265.494 133.57 265.888 133.615 266.271 133.707C266.603 133.78 266.928 133.885 267.24 134.019L267.143 134.994C266.817 134.797 266.468 134.642 266.103 134.532C265.764 134.434 265.414 134.384 265.062 134.385C264.713 134.367 264.367 134.449 264.062 134.619C263.941 134.693 263.843 134.799 263.777 134.924C263.712 135.05 263.682 135.191 263.69 135.332C263.682 135.526 263.742 135.717 263.859 135.872C263.991 136.029 264.158 136.152 264.346 136.232C264.635 136.356 264.931 136.46 265.234 136.544C265.849 136.703 266.426 136.984 266.931 137.369C267.116 137.545 267.262 137.759 267.358 137.996C267.455 138.233 267.499 138.488 267.489 138.743C267.479 138.999 267.415 139.25 267.3 139.478C267.185 139.707 267.023 139.908 266.825 140.069C266.381 140.401 265.728 140.566 264.859 140.566C264.454 140.581 264.049 140.554 263.649 140.485Z" fill="#B8912E"/>
<path d="M271.162 133.728H272.125L273.553 139.294L275.203 133.863H276.168L277.815 139.294L279.243 133.728H280.209L278.3 140.481H277.325L275.684 135.05L274.053 140.481H273.078L271.162 133.728Z" fill="#B8912E"/>
<path d="M281.596 133.728H282.512V140.481H281.596V133.728Z" fill="#B8912E"/>
<path d="M285.974 134.56H284.009V133.728H288.859V134.56H286.89V140.497H285.974V134.56Z" fill="#B8912E"/>
<path d="M290.352 133.728H291.268V136.516H294.706V133.728H295.615V140.481H294.699V137.385H291.262V140.481H290.346L290.352 133.728Z" fill="#B8912E"/>
<path d="M300.49 133.728H301.405V139.666H304.499V140.497H300.49V133.728Z" fill="#B8912E"/>
<path d="M305.899 133.728H310.018V134.56H306.815V136.535H309.365V137.366H306.818V139.65H310.106V140.481H305.903L305.899 133.728Z" fill="#B8912E"/>
<path d="M312.94 140.181C312.436 139.89 312.025 139.462 311.753 138.947C311.454 138.376 311.304 137.738 311.318 137.094C311.304 136.451 311.459 135.817 311.768 135.253C312.06 134.734 312.493 134.309 313.018 134.028C313.572 133.732 314.193 133.582 314.821 133.594C315.161 133.593 315.499 133.629 315.831 133.7C316.136 133.763 316.435 133.856 316.722 133.978L316.637 134.781C316.069 134.554 315.464 134.432 314.853 134.422C314.353 134.403 313.858 134.529 313.428 134.785C313.057 135.011 312.764 135.344 312.587 135.741C312.397 136.173 312.303 136.641 312.312 137.113C312.278 137.821 312.51 138.516 312.962 139.063C313.209 139.317 313.508 139.513 313.839 139.64C314.17 139.766 314.524 139.819 314.878 139.794C315.071 139.794 315.265 139.779 315.456 139.75C315.644 139.726 315.829 139.68 316.006 139.613V137.935H314.946V137.103H316.922V140.097C316.601 140.266 316.26 140.391 315.906 140.469C315.484 140.566 315.052 140.613 314.618 140.61C314.031 140.618 313.452 140.47 312.94 140.181Z" fill="#B8912E"/>
<path d="M322.265 138.656H319.678L319.031 140.481H318.065L320.487 133.728H321.453L323.872 140.481H322.909L322.265 138.656ZM321.975 137.828L320.972 135.016L319.969 137.828H321.975Z" fill="#B8912E"/>
<path d="M326.44 140.182C325.929 139.893 325.51 139.466 325.231 138.951C324.939 138.379 324.787 137.746 324.787 137.104C324.787 136.462 324.939 135.829 325.231 135.257C325.516 134.741 325.94 134.315 326.456 134.029C327 133.733 327.611 133.583 328.231 133.594C328.556 133.593 328.879 133.629 329.196 133.701C329.486 133.764 329.767 133.861 330.034 133.991L329.937 134.838C329.403 134.573 328.817 134.431 328.221 134.422C327.756 134.41 327.297 134.533 326.899 134.776C326.536 135.009 326.249 135.342 326.071 135.735C325.886 136.168 325.79 136.634 325.79 137.105C325.79 137.576 325.886 138.043 326.071 138.476C326.247 138.867 326.531 139.2 326.89 139.435C327.284 139.678 327.74 139.8 328.203 139.785C328.804 139.786 329.397 139.648 329.937 139.382L330.034 140.229C329.456 140.492 328.828 140.624 328.193 140.616C327.581 140.625 326.977 140.476 326.44 140.182Z" fill="#B8912E"/>
<path d="M336.499 133.728L334.128 137.56V140.481H333.212V137.56L330.828 133.728H331.865L333.659 136.66L335.453 133.728H336.499Z" fill="#B8912E"/>
<path d="M310.403 51.4722H309.622V54.7222H309.309V51.4722H308.528V51.1785H310.403V51.4722Z" fill="black"/>
<path d="M313.406 51.1785V54.7222H313.094V52.8472C313.094 52.4722 313.093 52.1597 313.125 51.8441H313.103C313.012 52.0972 312.872 52.4378 312.74 52.7816L312.303 53.8941H311.99L311.553 52.7816C311.422 52.441 311.281 52.1003 311.19 51.8441H311.168C311.19 52.1566 311.2 52.4691 311.2 52.8472V54.7222H310.887V51.1785H311.218L311.843 52.7097C311.934 52.9347 312.062 53.3003 312.128 53.4972H312.147C312.212 53.3003 312.34 52.9347 312.431 52.7097L313.056 51.1785H313.406Z" fill="black"/>
</svg>
