<svg width="25" height="25" viewBox="0 0 25 25" fill="none" xmlns="http://www.w3.org/2000/svg">
<path d="M6.04828 1.61292C5.17102 1.61292 4.31347 1.87305 3.58406 2.36043C2.85464 2.84781 2.28614 3.54053 1.95043 4.35101C1.61471 5.16149 1.52688 6.05332 1.69802 6.91372C1.86917 7.77412 2.2916 8.56445 2.91192 9.18476C3.53223 9.80507 4.32256 10.2275 5.18296 10.3987C6.04336 10.5698 6.93519 10.482 7.74567 10.1463C8.55614 9.81054 9.24887 9.24203 9.73625 8.51262C10.2236 7.78321 10.4838 6.92566 10.4838 6.0484C10.4824 4.87245 10.0147 3.74504 9.18317 2.91351C8.35164 2.08199 7.22423 1.61425 6.04828 1.61292ZM6.04828 9.67743C5.33052 9.67743 4.62889 9.46459 4.0321 9.06583C3.43531 8.66707 2.97016 8.10029 2.69549 7.43717C2.42082 6.77405 2.34895 6.04437 2.48898 5.34041C2.629 4.63645 2.97464 3.98981 3.48217 3.48229C3.98969 2.97476 4.63633 2.62912 5.34029 2.4891C6.04425 2.34907 6.77393 2.42094 7.43705 2.69561C8.10017 2.97028 8.66695 3.43543 9.06571 4.03222C9.46447 4.62901 9.67731 5.33064 9.67731 6.0484C9.67623 7.01055 9.29354 7.93298 8.6132 8.61332C7.93286 9.29366 7.01043 9.67635 6.04828 9.67743Z" fill="white"/>
<path d="M6.855 5.2419C6.96194 5.2419 7.0645 5.19942 7.14012 5.1238C7.21574 5.04818 7.25822 4.94562 7.25822 4.83868C7.25822 4.73174 7.21574 4.62917 7.14012 4.55355C7.0645 4.47794 6.96194 4.43545 6.855 4.43545H6.45177C6.45177 4.32851 6.40929 4.22595 6.33367 4.15033C6.25805 4.07471 6.15549 4.03223 6.04854 4.03223C5.9416 4.03223 5.83904 4.07471 5.76342 4.15033C5.6878 4.22595 5.64532 4.32851 5.64532 4.43545H5.24209C5.13515 4.43545 5.03259 4.47794 4.95697 4.55355C4.88135 4.62917 4.83887 4.73174 4.83887 4.83868V6.04836C4.83887 6.1553 4.88135 6.25786 4.95697 6.33348C5.03259 6.4091 5.13515 6.45158 5.24209 6.45158H6.45177V6.85481H5.24209C5.13515 6.85481 5.03259 6.89729 4.95697 6.97291C4.88135 7.04853 4.83887 7.15109 4.83887 7.25803C4.83887 7.36498 4.88135 7.46754 4.95697 7.54316C5.03259 7.61878 5.13515 7.66126 5.24209 7.66126H5.64532C5.64532 7.7682 5.6878 7.87076 5.76342 7.94638C5.83904 8.022 5.9416 8.06448 6.04854 8.06448C6.15549 8.06448 6.25805 8.022 6.33367 7.94638C6.40929 7.87076 6.45177 7.7682 6.45177 7.66126H6.855C6.96194 7.66126 7.0645 7.61878 7.14012 7.54316C7.21574 7.46754 7.25822 7.36498 7.25822 7.25803V6.04836C7.25822 5.94141 7.21574 5.83885 7.14012 5.76323C7.0645 5.68761 6.96194 5.64513 6.855 5.64513H5.64532V5.2419H6.855Z" fill="white"/>
<path d="M10.6855 0H1.41129C1.03712 0.000426887 0.678405 0.149253 0.413829 0.413829C0.149253 0.678405 0.000426887 1.03712 0 1.41129V10.6855C0.000426887 11.0597 0.149253 11.4184 0.413829 11.6829C0.678405 11.9475 1.03712 12.0963 1.41129 12.0968H10.6855C11.0597 12.0963 11.4184 11.9475 11.6829 11.6829C11.9475 11.4184 12.0963 11.0597 12.0968 10.6855V1.41129C12.0963 1.03712 11.9475 0.678405 11.6829 0.413829C11.4184 0.149253 11.0597 0.000426887 10.6855 0ZM11.2903 10.6855C11.2901 10.8458 11.2264 10.9996 11.113 11.113C10.9996 11.2264 10.8458 11.2901 10.6855 11.2903H1.41129C1.25093 11.2901 1.09719 11.2264 0.983796 11.113C0.870405 10.9996 0.806625 10.8458 0.806452 10.6855V1.41129C0.806625 1.25093 0.870405 1.09719 0.983796 0.983796C1.09719 0.870405 1.25093 0.806625 1.41129 0.806452H10.6855C10.8458 0.806625 10.9996 0.870405 11.113 0.983796C11.2264 1.09719 11.2901 1.25093 11.2903 1.41129V10.6855Z" fill="white"/>
<path d="M23.5888 0H14.3146C13.9404 0.000426887 13.5817 0.149253 13.3171 0.413829C13.0526 0.678405 12.9037 1.03712 12.9033 1.41129V10.6855C12.9037 11.0597 13.0526 11.4184 13.3171 11.6829C13.5817 11.9475 13.9404 12.0963 14.3146 12.0968H23.5888C23.963 12.0963 24.3217 11.9475 24.5863 11.6829C24.8508 11.4184 24.9997 11.0597 25.0001 10.6855V1.41129C24.9997 1.03712 24.8508 0.678405 24.5863 0.413829C24.3217 0.149253 23.963 0.000426887 23.5888 0ZM24.1936 10.6855C24.1935 10.8458 24.1297 10.9996 24.0163 11.113C23.9029 11.2264 23.7492 11.2901 23.5888 11.2903H14.3146C14.1543 11.2901 14.0005 11.2264 13.8871 11.113C13.7737 10.9996 13.7099 10.8458 13.7098 10.6855V1.41129C13.7099 1.25093 13.7737 1.09719 13.8871 0.983796C14.0005 0.870405 14.1543 0.806625 14.3146 0.806452H23.5888C23.7492 0.806625 23.9029 0.870405 24.0163 0.983796C24.1297 1.09719 24.1935 1.25093 24.1936 1.41129V10.6855Z" fill="white"/>
<path d="M10.6855 12.9032H1.41129C1.03712 12.9036 0.678405 13.0525 0.413829 13.317C0.149253 13.5816 0.000426887 13.9403 0 14.3145V23.5887C0.000426887 23.9628 0.149253 24.3216 0.413829 24.5861C0.678405 24.8507 1.03712 24.9995 1.41129 25H10.6855C11.0597 24.9995 11.4184 24.8507 11.6829 24.5861C11.9475 24.3216 12.0963 23.9628 12.0968 23.5887V14.3145C12.0963 13.9403 11.9475 13.5816 11.6829 13.317C11.4184 13.0525 11.0597 12.9036 10.6855 12.9032ZM11.2903 23.5887C11.2901 23.749 11.2264 23.9028 11.113 24.0162C10.9996 24.1296 10.8458 24.1933 10.6855 24.1935H1.41129C1.25093 24.1933 1.09719 24.1296 0.983796 24.0162C0.870405 23.9028 0.806625 23.749 0.806452 23.5887V14.3145C0.806625 14.1541 0.870405 14.0004 0.983796 13.887C1.09719 13.7736 1.25093 13.7098 1.41129 13.7096H10.6855C10.8458 13.7098 10.9996 13.7736 11.113 13.887C11.2264 14.0004 11.2901 14.1541 11.2903 14.3145V23.5887Z" fill="white"/>
<path d="M23.5888 12.9032H14.3146C13.9404 12.9036 13.5817 13.0524 13.3171 13.317C13.0526 13.5816 12.9037 13.9403 12.9033 14.3145V23.5887C12.9037 23.9629 13.0526 24.3216 13.3171 24.5862C13.5817 24.8507 13.9404 24.9996 14.3146 25H23.5888C23.963 24.9996 24.3217 24.8507 24.5863 24.5862C24.8509 24.3216 24.9997 23.9629 25.0001 23.5887V14.3145C24.9997 13.9403 24.8509 13.5816 24.5863 13.317C24.3217 13.0524 23.963 12.9036 23.5888 12.9032ZM24.1936 23.5887C24.1935 23.7491 24.1297 23.9028 24.0163 24.0162C23.9029 24.1296 23.7492 24.1934 23.5888 24.1935H14.3146C14.1542 24.1934 14.0005 24.1296 13.8871 24.0162C13.7737 23.9028 13.7099 23.7491 13.7098 23.5887V14.3145C13.7099 14.1541 13.7737 14.0004 13.8871 13.887C14.0005 13.7735 14.1542 13.7098 14.3146 13.7096H23.5888C23.7492 13.7098 23.9029 13.7735 24.0163 13.887C24.1297 14.0004 24.1935 14.1541 24.1936 14.3145V23.5887Z" fill="white"/>
<path d="M21.773 17.7083C21.7646 17.6076 21.7187 17.5136 21.6442 17.4451C21.5698 17.3767 21.4724 17.3386 21.3712 17.3386H20.5648V16.7338C20.5643 16.3596 20.4155 16.0009 20.1509 15.7363C19.8864 15.4718 19.5276 15.3229 19.1535 15.3225H18.7503C18.3761 15.3229 18.0174 15.4718 17.7528 15.7363C17.4882 16.0009 17.3394 16.3596 17.339 16.7338V17.3386H16.5325C16.4314 17.3386 16.3339 17.3767 16.2595 17.4451C16.1851 17.5136 16.1391 17.6076 16.1307 17.7083L15.7275 22.5471C15.7228 22.6026 15.7298 22.6586 15.7479 22.7113C15.766 22.7641 15.7948 22.8125 15.8326 22.8536C15.8703 22.8946 15.9162 22.9274 15.9673 22.9498C16.0183 22.9722 16.0735 22.9838 16.1293 22.9838H21.7744C21.8302 22.9838 21.8854 22.9722 21.9365 22.9498C21.9875 22.9274 22.0334 22.8946 22.0712 22.8536C22.1089 22.8125 22.1378 22.7641 22.1559 22.7113C22.174 22.6586 22.1809 22.6026 22.1763 22.5471L21.773 17.7083ZM18.1454 16.7338C18.1456 16.5734 18.2094 16.4197 18.3228 16.3063C18.4361 16.1929 18.5899 16.1291 18.7503 16.129H19.1535C19.3138 16.1291 19.4676 16.1929 19.581 16.3063C19.6944 16.4197 19.7581 16.5734 19.7583 16.7338V17.3386H18.1454V16.7338ZM16.5675 22.1773L16.9035 18.1451H17.339V18.5483C17.339 18.6553 17.3814 18.7578 17.4571 18.8334C17.5327 18.9091 17.6352 18.9515 17.7422 18.9515C17.8491 18.9515 17.9517 18.9091 18.0273 18.8334C18.1029 18.7578 18.1454 18.6553 18.1454 18.5483V18.1451H19.7583V18.5483C19.7583 18.6553 19.8008 18.7578 19.8764 18.8334C19.952 18.9091 20.0546 18.9515 20.1615 18.9515C20.2685 18.9515 20.371 18.9091 20.4467 18.8334C20.5223 18.7578 20.5648 18.6553 20.5648 18.5483V18.1451H21.0002L21.3362 22.1773H16.5675Z" fill="white"/>
</svg>
