<svg width="25" height="28" viewBox="0 0 25 28" fill="none" xmlns="http://www.w3.org/2000/svg">
<path d="M12.3106 13.4876C14.2937 13.4876 16.0108 12.8231 17.4138 11.5118C18.8168 10.2008 19.528 8.59677 19.528 6.7436C19.528 4.89108 18.8168 3.28678 17.4136 1.97536C16.0103 0.664576 14.2934 0 12.3106 0C10.3274 0 8.61074 0.664576 7.20772 1.97557C5.80471 3.28657 5.09326 4.89086 5.09326 6.7436C5.09326 8.59677 5.80471 10.2011 7.20795 11.5121C8.61119 12.8228 10.3281 13.4876 12.3106 13.4876Z" fill="white"/>
<path d="M24.9394 21.5306C24.899 20.985 24.8171 20.3899 24.6966 19.7614C24.575 19.1282 24.4184 18.5297 24.2309 17.9826C24.0373 17.4171 23.7739 16.8587 23.4484 16.3236C23.1105 15.7682 22.7136 15.2845 22.2683 14.8866C21.8026 14.4702 21.2324 14.1355 20.5731 13.8913C19.9161 13.6484 19.1879 13.5254 18.409 13.5254C18.1031 13.5254 17.8073 13.6426 17.236 13.9902C16.8844 14.2045 16.4731 14.4523 16.014 14.7263C15.6215 14.96 15.0898 15.179 14.4329 15.3772C13.7921 15.571 13.1415 15.6693 12.4993 15.6693C11.8571 15.6693 11.2067 15.571 10.5652 15.3772C9.9091 15.1792 9.37734 14.9603 8.98527 14.7266C8.53055 14.455 8.11904 14.2072 7.76218 13.99C7.19155 13.6424 6.8955 13.5251 6.58961 13.5251C5.81049 13.5251 5.08258 13.6484 4.42576 13.8915C3.76689 14.1352 3.1965 14.47 2.73035 14.8868C2.28524 15.285 1.88813 15.7684 1.5507 16.3236C1.22538 16.8587 0.962013 17.4169 0.768147 17.9828C0.580912 18.5299 0.42431 19.1282 0.302687 19.7614C0.182206 20.389 0.100362 20.9844 0.0598972 21.5312C0.0201181 22.067 0 22.6231 0 23.1847C0 24.6463 0.497238 25.8295 1.47777 26.7022C2.44618 27.5633 3.72757 28.0001 5.28581 28.0001H19.7142C21.2724 28.0001 22.5534 27.5635 23.522 26.7022C24.5028 25.8302 25 24.6467 25 23.1845C24.9998 22.6203 24.9794 22.0638 24.9394 21.5306Z" fill="white"/>
</svg>
