<svg width="25" height="31" viewBox="0 0 25 31" fill="none" xmlns="http://www.w3.org/2000/svg">
<path d="M23.2285 16.9997L21.4559 16.5629C21.4714 16.7968 21.4093 17.0301 21.237 17.2172L20.9447 17.5353L17.3894 21.4049C17.1651 21.6501 16.8094 21.7966 16.394 21.7966C16.3927 21.7966 16.3921 21.7966 16.3909 21.7966C16.0003 21.7847 15.641 21.6161 15.4284 21.3448L14.9117 20.6848L13.803 21.4949H11.1668L10.0744 20.6971L9.56713 21.3453C9.35507 21.6155 8.99559 21.7846 8.56106 21.7975C8.18806 21.7975 7.83113 21.6505 7.60603 21.4054L4.05205 17.5357L3.75976 17.2177C3.58761 17.0301 3.52536 16.7968 3.54094 16.5634L1.77138 16.9997C0.720624 17.2587 0 18.0574 0 18.9641V20.6673C0 26.3738 5.59651 31 12.5 31C19.4035 31 25 26.3738 25 20.6673V18.9641C24.9999 18.0574 24.2793 17.2587 23.2285 16.9997ZM12.5248 30.3549C12.1406 30.3549 11.7979 30.1791 11.6059 29.9098C11.5822 29.8769 11.5524 29.8482 11.5337 29.8122L10.0975 27.009L10.9829 22.1126H14.0668L14.9522 27.009L13.516 29.8122C13.4979 29.8471 13.4681 29.8754 13.445 29.9077C13.2536 30.1786 12.9103 30.3549 12.5248 30.3549Z" fill="white"/>
<path d="M6.0846 15.4048L4.42707 16.2189C4.28952 16.2862 4.19331 16.3993 4.16269 16.5294C4.13224 16.6594 4.16961 16.7934 4.26662 16.8988L8.11344 21.0871C8.21975 21.2033 8.38633 21.2711 8.56102 21.2711C8.56794 21.2711 8.57541 21.2706 8.58217 21.2706C8.76497 21.265 8.93346 21.1858 9.03293 21.0589L11.0736 18.452C9.22511 18.0877 7.49857 17.0258 6.0846 15.4048Z" fill="white"/>
<path d="M18.9136 15.4058C17.4997 17.0268 15.773 18.0886 13.9233 18.4525L15.9633 21.0588C16.0629 21.1857 16.2307 21.2648 16.4147 21.2706C16.4216 21.2706 16.4289 21.271 16.4359 21.271C16.6106 21.271 16.7759 21.2032 16.8823 21.087L20.7299 16.8987C20.8269 16.7934 20.8642 16.6593 20.8343 16.5293C20.8032 16.3992 20.7062 16.2862 20.5694 16.2188L18.9136 15.4058Z" fill="white"/>
<path d="M5.74856 12.8567C7.05742 15.1787 9.46745 17.5563 12.4998 17.5563C15.5302 17.5563 17.9383 15.1823 19.2484 12.8618C20.2873 12.6937 21.271 11.895 21.7311 10.8044C22.3492 9.33499 21.8388 7.89027 20.5759 7.457C20.8557 5.78001 20.9415 2.58573 16.1645 1.44887C16.1645 1.44887 15.2773 0.287358 13.2241 0.0432522C12.6888 -0.020502 12.0739 -0.0183987 11.3731 0.080716C10.3311 0.228205 9.10742 0.588449 7.67182 1.30033C4.20363 3.02057 3.96048 5.94708 4.43485 7.44057C4.43613 7.4436 4.43923 7.44576 4.43986 7.44931C3.80941 7.66161 3.33321 8.14627 3.12615 8.79236C2.93031 9.40551 2.98192 10.1204 3.27095 10.8045C3.72544 11.8848 4.69407 12.6789 5.74856 12.8567ZM4.35781 9.06111C4.41991 8.86525 4.58036 8.52091 4.95034 8.4145C4.98954 8.40326 5.27896 8.33865 5.38988 8.31788C8.22014 7.78833 14.9134 6.78266 15.7361 3.96827C15.7361 3.96827 16.5012 6.62656 19.4225 8.14614C19.7577 8.32045 20.01 8.40319 20.05 8.41443C20.6146 8.57684 20.9496 9.45671 20.5288 10.4584C20.1494 11.3568 19.379 11.8415 18.832 11.8415C18.8314 11.8415 18.8314 11.8415 18.8314 11.8415C18.5702 11.8389 18.3388 11.9628 18.2356 12.1575C17.1277 14.2586 15.0391 16.5037 12.4998 16.5037C9.96051 16.5037 7.87195 14.2586 6.76402 12.1575C6.66272 11.9653 6.40645 11.8415 6.15281 11.8415C5.62071 11.8415 4.85158 11.3568 4.4735 10.4584C4.27002 9.97648 4.22772 9.4671 4.35781 9.06111Z" fill="white"/>
</svg>
