<svg width="26" height="24" viewBox="0 0 26 24" fill="none" xmlns="http://www.w3.org/2000/svg">
<path fill-rule="evenodd" clip-rule="evenodd" d="M19.1747 0.75C20.851 0.75 22.4635 1.4125 23.6497 2.60125C24.8372 3.7875 25.501 5.3875 25.501 7.0625V16.9375C25.501 20.425 22.6635 23.25 19.1747 23.25H6.82598C3.33723 23.25 0.500977 20.425 0.500977 16.9375V7.0625C0.500977 3.575 3.32473 0.75 6.82598 0.75H19.1747ZM21.1635 8.925L21.2635 8.825C21.5622 8.4625 21.5622 7.9375 21.2497 7.575C21.076 7.38875 20.8372 7.275 20.5885 7.25C20.326 7.23625 20.076 7.325 19.8872 7.5L14.251 12C13.526 12.6012 12.4872 12.6012 11.751 12L6.12598 7.5C5.73723 7.2125 5.19973 7.25 4.87598 7.5875C4.53848 7.925 4.50098 8.4625 4.78723 8.8375L4.95098 9L10.6385 13.4375C11.3385 13.9875 12.1872 14.2875 13.076 14.2875C13.9622 14.2875 14.826 13.9875 15.5247 13.4375L21.1635 8.925Z" fill="#002178"/>
</svg>
