<svg width="22" height="20" viewBox="0 0 22 20" fill="none" xmlns="http://www.w3.org/2000/svg">
<path d="M8.11119 14.9125L10.3004 17.1113L8.141 18.0148L6.90519 14.9125H8.11119ZM11.0862 20.0917H11.2893L12.1893 23.8583H10.1862L11.0862 20.0917ZM11.4024 19.15H10.9726L10.3674 18.1363L11.1875 17.7931L12.0076 18.1363L11.4024 19.15ZM12.0746 17.1113L14.2638 14.9125H15.4698L14.234 18.0153L12.0746 17.1113ZM16.8125 9.2625V7.37917C17.4329 7.37917 17.9375 7.80151 17.9375 8.32083C17.9375 8.84016 17.4329 9.2625 16.8125 9.2625ZM4.4375 8.32083C4.4375 7.80151 4.94206 7.37917 5.5625 7.37917V9.2625C4.94206 9.2625 4.4375 8.84016 4.4375 8.32083ZM5.5625 6.4375C5.36731 6.4375 5.18112 6.46481 5 6.50436V5.49583C5 2.64023 7.77594 0.316667 11.1875 0.316667C14.5991 0.316667 17.375 2.64023 17.375 5.49583V6.50436C17.1939 6.46481 17.0077 6.4375 16.8125 6.4375C16.8125 6.17713 16.5611 5.96667 16.25 5.96667C15.3697 5.96667 14.5282 5.61448 14 5.02453L13.325 4.2712C13.1129 4.03484 12.6371 4.03484 12.425 4.2712L11.75 5.025C11.2218 5.61448 10.3803 5.96667 9.5 5.96667H6.125C5.81394 5.96667 5.5625 6.17713 5.5625 6.4375ZM6.6875 9.2625V6.90833H9.5C10.7324 6.90833 11.9103 6.41537 12.65 5.59L12.875 5.33858L13.1 5.58953C13.7261 6.28825 14.6654 6.74919 15.6875 6.87396V9.2625C15.6875 11.3393 13.6687 13.0292 11.1875 13.0292C8.70631 13.0292 6.6875 11.3393 6.6875 9.2625ZM11.1875 13.9708C11.9874 13.9708 12.7479 13.8282 13.4375 13.5749V14.2712L11.1875 16.5312L8.9375 14.2712V13.5749C9.62712 13.8282 10.3876 13.9708 11.1875 13.9708ZM0.5 18.6792C0.5 16.6023 2.51881 14.9125 5 14.9125H5.72L7.27925 18.828C7.33044 18.957 7.44687 19.0615 7.59706 19.1137C7.66625 19.1382 7.73938 19.15 7.8125 19.15C7.89856 19.15 7.98519 19.1335 8.06394 19.1006L9.3605 18.5577L10.0349 19.6872L9.03875 23.8583H3.875V21.0333H2.75V23.8583H0.5V18.6792ZM21.875 18.6792V23.8583H19.625V21.0333H18.5V23.8583H13.3362L12.3395 19.6872L13.0139 18.5577L14.3105 19.1006C14.3898 19.1335 14.4764 19.15 14.5625 19.15C14.6356 19.15 14.7087 19.1382 14.7779 19.1142C14.9287 19.062 15.0451 18.9574 15.0957 18.8284L16.655 14.9125H17.375C19.8562 14.9125 21.875 16.6023 21.875 18.6792Z" fill="#002178"/>
</svg>
