<svg width="25" height="25" viewBox="0 0 25 25" fill="none" xmlns="http://www.w3.org/2000/svg">
<g clip-path="url(#clip0)">
<path d="M11.0095 0C4.93901 0 0 4.93901 0 11.0095C0 17.0803 4.93901 22.0189 11.0095 22.0189C17.0803 22.0189 22.0189 17.0803 22.0189 11.0095C22.0189 4.93901 17.0803 0 11.0095 0ZM11.0095 19.9865C6.05962 19.9865 2.03252 15.9594 2.03252 11.0095C2.03252 6.05967 6.05962 2.03252 11.0095 2.03252C15.9593 2.03252 19.9864 6.05962 19.9864 11.0095C19.9864 15.9593 15.9593 19.9865 11.0095 19.9865Z" fill="#8D8D8D"/>
<path d="M24.7025 23.2652L18.8759 17.4386C18.4789 17.0416 17.8359 17.0416 17.4389 17.4386C17.0419 17.8353 17.0419 18.479 17.4389 18.8756L23.2655 24.7022C23.4639 24.9007 23.7238 25 23.984 25C24.2438 25 24.5039 24.9007 24.7025 24.7022C25.0995 24.3055 25.0995 23.6619 24.7025 23.2652Z" fill="#8D8D8D"/>
</g>
<defs>
<clipPath id="clip0">
<rect width="25" height="25" fill="white"/>
</clipPath>
</defs>
</svg>
