<svg width="24" height="24" viewBox="0 0 24 24" fill="none" xmlns="http://www.w3.org/2000/svg">
<mask id="mask0" mask-type="alpha" maskUnits="userSpaceOnUse" x="0" y="0" width="24" height="24">
<circle cx="12" cy="12" r="12" fill="#C4C4C4"/>
</mask>
<g mask="url(#mask0)">
<path d="M12.3561 12.597C13.8632 12.597 15.1682 12.0749 16.2345 11.0447C17.3007 10.0147 17.8413 8.75435 17.8413 7.29835C17.8413 5.84285 17.3007 4.58237 16.2343 3.55201C15.1678 2.52215 13.863 2 12.3561 2C10.8488 2 9.54413 2.52215 8.47784 3.55218C7.41155 4.58221 6.87085 5.84268 6.87085 7.29835C6.87085 8.75435 7.41155 10.0148 8.47802 11.0449C9.54448 12.0747 10.8493 12.597 12.3561 12.597Z" fill="#002178"/>
<path d="M21.954 18.917C21.9232 18.4883 21.861 18.0207 21.7694 17.5269C21.677 17.0295 21.558 16.5592 21.4155 16.1293C21.2683 15.6851 21.0682 15.2463 20.8208 14.8259C20.564 14.3895 20.2624 14.0095 19.9239 13.6968C19.57 13.3697 19.1366 13.1067 18.6356 12.9149C18.1362 12.724 17.5828 12.6274 16.9909 12.6274C16.7584 12.6274 16.5336 12.7195 16.0994 12.9926C15.8321 13.1609 15.5196 13.3556 15.1707 13.571C14.8723 13.7546 14.4682 13.9266 13.969 14.0824C13.482 14.2346 12.9875 14.3118 12.4995 14.3118C12.0114 14.3118 11.5171 14.2346 11.0296 14.0824C10.5309 13.9268 10.1268 13.7547 9.8288 13.5711C9.48322 13.3578 9.17047 13.1631 8.89925 12.9924C8.46558 12.7193 8.24058 12.6272 8.0081 12.6272C7.41597 12.6272 6.86276 12.724 6.36358 12.915C5.86284 13.1065 5.42934 13.3696 5.07507 13.697C4.73678 14.0099 4.43498 14.3897 4.17853 14.8259C3.93129 15.2463 3.73113 15.6849 3.58379 16.1295C3.44149 16.5593 3.32248 17.0295 3.23004 17.5269C3.13848 18.02 3.07628 18.4878 3.04552 18.9175C3.01529 19.3384 3 19.7753 3 20.2166C3 21.3649 3.3779 22.2946 4.1231 22.9802C4.8591 23.6568 5.83296 24 7.01722 24H17.9828C19.167 24 20.1406 23.6569 20.8767 22.9802C21.6221 22.2951 22 21.3652 22 20.2164C21.9998 19.7731 21.9844 19.3359 21.954 18.917Z" fill="#002178"/>
</g>
<circle cx="12" cy="12" r="11.5" stroke="#002178"/>
</svg>
