<svg width="30" height="30" viewBox="0 0 30 30" fill="none" xmlns="http://www.w3.org/2000/svg">
<path d="M28.636 15.1259V10.9095C28.636 9.47975 27.527 8.31699 26.1258 8.20424L22.2101 1.36486C21.8472 0.732315 21.2613 0.280213 20.5601 0.0924815C19.8623 -0.0939715 19.1326 0.00395309 18.5081 0.367463L5.08479 8.18225H2.72725C1.22316 8.18225 0 9.40535 0 10.9095V27.2729C0 28.777 1.2231 30.0001 2.72725 30.0001H25.9087C27.4128 30.0001 28.636 28.777 28.636 27.2729V23.0564C29.4279 22.774 29.9996 22.0243 29.9996 21.1366V17.0458C29.9996 16.1581 29.4279 15.4083 28.636 15.1259ZM24.5413 8.18225H18.5986L23.0557 5.58738L24.5413 8.18225ZM22.3782 4.40404L15.8885 8.18225H13.1967L21.7051 3.2285L22.3782 4.40404ZM19.1945 1.54594C19.5028 1.3655 19.863 1.31756 20.2072 1.40948C20.5555 1.50267 20.8458 1.72773 21.0262 2.04266L21.0276 2.04516L10.4867 8.18225H7.79497L19.1945 1.54594ZM27.2723 27.2729C27.2723 28.0246 26.6604 28.6365 25.9087 28.6365H2.72725C1.97556 28.6365 1.36366 28.0246 1.36366 27.2729V10.9095C1.36366 10.1578 1.97556 9.54591 2.72725 9.54591H25.9087C26.6604 9.54591 27.2723 10.1578 27.2723 10.9095V15.0003H23.1815C20.9256 15.0003 19.0906 16.8353 19.0906 19.0912C19.0906 21.347 20.9256 23.182 23.1815 23.182H27.2723V27.2729ZM28.636 21.1366C28.636 21.5128 28.3304 21.8184 27.9541 21.8184H23.1815C21.6774 21.8184 20.4542 20.5953 20.4542 19.0912C20.4542 17.5871 21.6773 16.3639 23.1815 16.3639H27.9541C28.3303 16.3639 28.636 16.6695 28.636 17.0458V21.1366Z" fill="white"/>
</svg>
